<svg width="50" height="50" viewBox="0 0 50 50" fill="none" xmlns="http://www.w3.org/2000/svg">
<path d="M20.0053 30.249L20.0705 30.4197C20.0908 30.4748 20.1215 30.5486 20.1478 30.6263L20.2426 30.8992C20.2797 31.0036 20.3099 31.1091 20.3494 31.2313C20.3871 31.3518 20.4317 31.4866 20.4667 31.6192L20.5888 32.0558C20.629 32.2079 20.6628 32.3606 20.7035 32.5271C20.878 33.2456 21.0019 33.9754 21.0744 34.7112C21.116 35.1028 21.1337 35.4932 21.1424 35.8945C21.143 36.2879 21.1335 36.6913 21.0967 37.0854C21.0606 37.4772 21.001 37.8666 20.9185 38.2514C20.8356 38.629 20.7263 39.0003 20.5912 39.3626C20.322 40.0808 19.9443 40.7444 19.4538 41.3311C19.2111 41.6271 18.9275 41.891 18.6466 42.1644C18.3616 42.4337 18.07 42.7031 17.7656 42.9643C17.1501 43.4984 16.507 43.9999 15.839 44.4667C15.1644 44.9411 14.4548 45.3806 13.727 45.7838C13.3624 45.9838 12.9929 46.1748 12.6189 46.3566C12.246 46.5356 11.8689 46.7054 11.4878 46.866C10.7276 47.1831 9.96173 47.4584 9.20235 47.6864C8.46925 47.9079 7.72567 48.093 6.97432 48.2412C5.53741 48.5277 4.21856 48.6452 3.23829 48.6703L2.8878 48.6764L2.57306 48.6761L2.06348 48.6625L1.73682 48.6434L1.6214 48.6334L1.61143 48.518L1.59229 48.1913L1.57872 47.6817L1.57843 47.367L1.58448 47.0165C1.60958 46.0362 1.72696 44.7174 2.01358 43.2805C2.1618 42.5291 2.34692 41.7856 2.56827 41.0524C2.7963 40.2931 3.07159 39.5271 3.38868 38.767C3.54929 38.3859 3.71917 38.0088 3.89815 37.6359C4.07979 37.2633 4.27022 36.8927 4.47091 36.5278C4.87413 35.8 5.31358 35.0904 5.788 34.4158C6.25476 33.7478 6.75627 33.1047 7.29044 32.4892C7.55157 32.1848 7.82091 31.8931 8.09034 31.6082C8.36368 31.3273 8.62764 31.0437 8.92364 30.801C9.51036 30.3105 10.1739 29.9328 10.8921 29.6636C11.2544 29.5286 11.6257 29.4192 12.0033 29.3363C12.3881 29.2538 12.7775 29.1942 13.1693 29.1581C13.5634 29.1213 13.9669 29.1118 14.3602 29.1124C14.7615 29.121 15.1518 29.1388 15.5435 29.1804C16.2793 29.2528 17.0091 29.3768 17.7276 29.5513C17.894 29.5919 18.0467 29.6258 18.1989 29.666L18.6355 29.7881C18.7681 29.8231 18.903 29.8677 19.0234 29.9054C19.1457 29.9448 19.2511 29.9751 19.3555 30.0122L19.6284 30.107C19.7061 30.1333 19.7799 30.164 19.835 30.1843C19.9472 30.2268 20.0053 30.249 20.0053 30.249V30.249Z" fill="#FFB636"/>
<path d="M7.50585 17.7492L0.424405 24.8307C-0.0650487 25.3201 0.281631 26.157 0.973819 26.157H6.92548C7.13153 26.157 7.32919 26.2389 7.47489 26.3846L11.3393 30.249L17.6158 17.5217H8.05526C7.95323 17.5217 7.85219 17.5417 7.75791 17.5808C7.66364 17.6198 7.57799 17.6771 7.50585 17.7492Z" fill="#A0616A"/>
<path d="M21.1095 38.3391L24.9739 42.2035C25.1196 42.3493 25.2015 42.5469 25.2015 42.7529V48.7046C25.2015 49.3968 26.0384 49.7435 26.5278 49.254L33.6093 42.1726C33.755 42.0269 33.8368 41.8292 33.8368 41.6232V32.0626L21.1095 38.3391V38.3391Z" fill="#A0616A"/>
<path d="M49.3796 1.74561L49.3871 1.80782C49.3917 1.84874 49.4007 1.91182 49.4071 1.98966C49.4199 2.14522 49.4489 2.38624 49.4627 2.67647C49.5069 3.27354 49.5365 4.11407 49.5157 5.1253C49.4955 6.13712 49.4242 7.31905 49.2697 8.60206C49.2352 8.92686 49.1859 9.24844 49.1382 9.58262C49.094 9.92022 49.031 10.25 48.9735 10.5956C48.8553 11.2838 48.7078 11.9841 48.5376 12.6984C48.183 14.181 47.7327 15.6391 47.1895 17.0634C46.6291 18.5303 45.9567 19.9955 45.1685 21.4189C44.3791 22.841 43.4812 24.2282 42.4776 25.5468C41.4753 26.8666 40.3688 28.119 39.1816 29.2907C37.9944 30.4625 36.728 31.5551 35.3976 32.5467C35.0649 32.7944 34.7302 33.0381 34.388 33.2712C34.0495 33.5081 33.7037 33.7347 33.3591 33.9591C32.6665 34.4046 31.9593 34.8215 31.2447 35.2127C29.838 35.9823 28.3806 36.6553 26.8825 37.227C25.459 37.7689 24.0029 38.2209 22.5228 38.5803C21.81 38.7521 21.1134 38.9032 20.4264 39.0225L19.9206 39.1136C19.753 39.1423 19.583 39.1659 19.418 39.1918L18.9282 39.2665L18.4425 39.3283C17.1664 39.4897 15.9923 39.5688 14.9879 39.5965C13.9846 39.6252 13.1488 39.6004 12.5586 39.563C12.2713 39.5521 12.0318 39.5246 11.8781 39.5138C11.8011 39.5081 11.7385 39.4996 11.6981 39.4955L11.6364 39.4887C11.1694 39.4366 10.8152 39.0659 10.7654 38.6177L10.7586 38.5562C10.7545 38.5157 10.746 38.4531 10.7403 38.3761C10.7295 38.2224 10.702 37.983 10.6911 37.6956C10.6538 37.1054 10.629 36.2697 10.6576 35.2663C10.6853 34.2619 10.7644 33.0878 10.9258 31.8117L10.9876 31.326L11.0623 30.8362C11.0882 30.6712 11.1119 30.5013 11.1405 30.3336L11.2317 29.8278C11.3509 29.1408 11.5021 28.4442 11.6738 27.7314C12.0331 26.2513 12.4851 24.7951 13.0272 23.3717C13.5989 21.8736 14.2719 20.4162 15.0414 19.0095C15.4327 18.295 15.8496 17.5877 16.295 16.8951C16.5194 16.5505 16.746 16.2047 16.9829 15.8662C17.216 15.5239 17.4597 15.1894 17.7074 14.8566C18.699 13.5262 19.7916 12.2598 20.9634 11.0727C22.1351 9.88546 23.3875 8.77891 24.7073 7.77667C26.0259 6.77315 27.4131 5.8751 28.8353 5.08575C30.2586 4.29757 31.7239 3.6251 33.1907 3.06475C34.6151 2.52156 36.0731 2.07124 37.5557 1.71661C38.27 1.54639 38.9703 1.39893 39.6585 1.28077C40.0041 1.22325 40.3339 1.16026 40.6715 1.11602C41.0057 1.06837 41.3272 1.01895 41.6521 0.98448C42.9351 0.829988 44.117 0.758699 45.1288 0.738484C46.1401 0.717683 46.9806 0.747273 47.5777 0.791511C47.8679 0.805281 48.1089 0.834383 48.2645 0.847078C48.3423 0.853523 48.4054 0.86241 48.4463 0.867097L48.5085 0.874617C48.9742 0.930769 49.3259 1.29981 49.3796 1.74561V1.74561Z" fill="#FA00EF" fill-opacity="0.9"/>
<path d="M23.7408 26.5134L23.7977 26.6674C23.8295 26.7632 23.8723 26.901 23.9018 27.0545C23.9717 27.3724 23.9948 27.7593 23.8685 28.0958C23.8061 28.265 23.6909 28.406 23.5824 28.5765L23.2218 29.119L22.3561 30.419C22.0122 30.9283 21.6655 31.4357 21.3158 31.9411C20.9261 32.5034 20.5317 33.0624 20.1327 33.6181L19.497 34.493L18.8364 35.3802C18.3883 35.9735 17.9297 36.5731 17.4634 37.1648C17.0016 37.7543 16.534 38.3393 16.0606 38.9196C15.5937 39.4943 15.1359 40.0614 14.6853 40.6027L14.0243 41.4027C13.8054 41.6611 13.6062 41.929 13.375 42.1525C13.1452 42.3773 12.8801 42.5544 12.5754 42.6775C12.2733 42.8031 11.9427 42.8858 11.6229 42.9629C11.0203 43.1058 10.411 43.2192 9.79726 43.3029C9.51367 43.3417 9.24248 43.3722 8.98632 43.3951C8.73154 43.4193 8.48506 43.429 8.26904 43.4445C8.05136 43.4583 7.84355 43.4571 7.66992 43.4633C7.49365 43.4668 7.33496 43.461 7.21074 43.4609C7.08388 43.458 6.98252 43.4517 6.91621 43.4494L6.81211 43.4424L6.80507 43.3383C6.80283 43.272 6.79648 43.1705 6.79365 43.0438C6.79345 42.9195 6.78769 42.761 6.79121 42.5846C6.79726 42.4109 6.79619 42.2031 6.80996 41.9855C6.82539 41.7694 6.83515 41.523 6.85937 41.2682C6.88222 41.0121 6.91269 40.7408 6.95156 40.4572C7.03526 39.8435 7.14874 39.2342 7.2916 38.6316C7.36875 38.3119 7.45136 37.9813 7.57705 37.6791C7.70009 37.3743 7.87724 37.1093 8.10205 36.8795C8.32548 36.6484 8.59336 36.4492 8.85185 36.2303L9.65185 35.5693C10.1932 35.1187 10.7603 34.6608 11.335 34.194C11.9087 33.7262 12.4964 33.2558 13.0898 32.7912C13.6815 32.3248 14.2811 31.8663 14.8744 31.4182L15.7616 30.7576L16.6365 30.1219C17.1922 29.7229 17.7512 29.3285 18.3135 28.9388C18.8506 28.5666 19.3622 28.2186 19.8356 27.8985L21.1356 27.0328L21.6781 26.6722C21.8485 26.5637 21.9895 26.4485 22.1588 26.3861C22.4953 26.2598 22.8822 26.2829 23.2001 26.3528C23.3536 26.3823 23.4914 26.4251 23.5872 26.4568L23.7408 26.5134V26.5134Z" fill="#A0616A"/>
<path d="M35.3626 20.1817C35.3626 23.1032 32.9941 25.4717 30.0726 25.4717C27.151 25.4717 24.7825 23.1032 24.7825 20.1817C24.7825 17.2601 27.151 14.8916 30.0726 14.8916C32.9941 14.8916 35.3626 17.2601 35.3626 20.1817V20.1817ZM38.0217 8.86515C36.1619 8.86515 34.6543 10.3728 34.6543 12.2325C34.6543 14.0923 36.1619 15.5999 38.0217 15.5999C39.8815 15.5999 41.3891 14.0923 41.3891 12.2325C41.3891 10.3728 39.8815 8.86515 38.0217 8.86515Z" fill="#2B3B47"/>
</svg>
