<svg width="193" height="60" viewBox="0 0 193 60" fill="none" xmlns="http://www.w3.org/2000/svg">
<path d="M35.24 7.69006L39.325 13.4201L60 7.69006H35.24ZM13.7575 52.3101L24.9425 41.3751L18.2125 34.1501L13.7575 52.3101ZM33.545 7.69006L27.5675 13.0751L37.6225 13.4501L33.545 7.69006ZM10.31 7.69256L12.4525 12.0926L24.2875 12.8276L10.31 7.69256ZM16.6425 30.5076L25.385 14.2026L0 12.8251L16.6425 30.5076ZM17.66 31.5376L25.9175 40.4076L35.025 31.4826L37.85 14.8526L26.7525 14.2826L17.66 31.5376Z" fill="#775A7C"/>
<path d="M72.9091 24.152V27.44H66.0451V30.992H71.1811V34.184H66.0451V41H61.9411V24.152H72.9091ZM79.1701 29.84C79.6501 29.104 80.2501 28.528 80.9701 28.112C81.6901 27.68 82.4901 27.464 83.3701 27.464V31.808H82.2421C81.2181 31.808 80.4501 32.032 79.9381 32.48C79.4261 32.912 79.1701 33.68 79.1701 34.784V41H75.0661V27.608H79.1701V29.84ZM97.9557 34.088C97.9557 34.472 97.9318 34.872 97.8838 35.288H88.5958C88.6598 36.12 88.9238 36.76 89.3878 37.208C89.8678 37.64 90.4518 37.856 91.1398 37.856C92.1638 37.856 92.8758 37.424 93.2758 36.56H97.6438C97.4198 37.44 97.0118 38.232 96.4198 38.936C95.8438 39.64 95.1158 40.192 94.2358 40.592C93.3558 40.992 92.3718 41.192 91.2838 41.192C89.9718 41.192 88.8038 40.912 87.7798 40.352C86.7558 39.792 85.9558 38.992 85.3798 37.952C84.8038 36.912 84.5158 35.696 84.5158 34.304C84.5158 32.912 84.7958 31.696 85.3558 30.656C85.9318 29.616 86.7318 28.816 87.7558 28.256C88.7798 27.696 89.9558 27.416 91.2838 27.416C92.5798 27.416 93.7318 27.688 94.7398 28.232C95.7478 28.776 96.5318 29.552 97.0918 30.56C97.6678 31.568 97.9557 32.744 97.9557 34.088ZM93.7558 33.008C93.7558 32.304 93.5158 31.744 93.0358 31.328C92.5558 30.912 91.9558 30.704 91.2358 30.704C90.5478 30.704 89.9638 30.904 89.4838 31.304C89.0198 31.704 88.7318 32.272 88.6198 33.008H93.7558ZM112.745 34.088C112.745 34.472 112.721 34.872 112.673 35.288H103.385C103.449 36.12 103.713 36.76 104.177 37.208C104.657 37.64 105.241 37.856 105.929 37.856C106.953 37.856 107.665 37.424 108.065 36.56H112.433C112.209 37.44 111.801 38.232 111.209 38.936C110.633 39.64 109.905 40.192 109.025 40.592C108.145 40.992 107.161 41.192 106.073 41.192C104.761 41.192 103.593 40.912 102.569 40.352C101.545 39.792 100.745 38.992 100.169 37.952C99.5928 36.912 99.3048 35.696 99.3048 34.304C99.3048 32.912 99.5848 31.696 100.145 30.656C100.721 29.616 101.521 28.816 102.545 28.256C103.569 27.696 104.745 27.416 106.073 27.416C107.369 27.416 108.521 27.688 109.529 28.232C110.537 28.776 111.321 29.552 111.881 30.56C112.457 31.568 112.745 32.744 112.745 34.088ZM108.545 33.008C108.545 32.304 108.305 31.744 107.825 31.328C107.345 30.912 106.745 30.704 106.025 30.704C105.337 30.704 104.753 30.904 104.273 31.304C103.809 31.704 103.521 32.272 103.409 33.008H108.545ZM119.014 23.24V41H114.91V23.24H119.014ZM121.172 34.28C121.172 32.904 121.428 31.696 121.94 30.656C122.468 29.616 123.18 28.816 124.076 28.256C124.972 27.696 125.972 27.416 127.076 27.416C128.02 27.416 128.844 27.608 129.548 27.992C130.268 28.376 130.82 28.88 131.204 29.504V27.608H135.308V41H131.204V39.104C130.804 39.728 130.244 40.232 129.524 40.616C128.82 41 127.996 41.192 127.052 41.192C125.964 41.192 124.972 40.912 124.076 40.352C123.18 39.776 122.468 38.968 121.94 37.928C121.428 36.872 121.172 35.656 121.172 34.28ZM131.204 34.304C131.204 33.28 130.916 32.472 130.34 31.88C129.78 31.288 129.092 30.992 128.276 30.992C127.46 30.992 126.764 31.288 126.188 31.88C125.628 32.456 125.348 33.256 125.348 34.28C125.348 35.304 125.628 36.12 126.188 36.728C126.764 37.32 127.46 37.616 128.276 37.616C129.092 37.616 129.78 37.32 130.34 36.728C130.916 36.136 131.204 35.328 131.204 34.304ZM146.437 27.464C148.005 27.464 149.253 27.976 150.181 29C151.125 30.008 151.597 31.4 151.597 33.176V41H147.517V33.728C147.517 32.832 147.285 32.136 146.821 31.64C146.357 31.144 145.733 30.896 144.949 30.896C144.165 30.896 143.541 31.144 143.077 31.64C142.613 32.136 142.381 32.832 142.381 33.728V41H138.277V27.608H142.381V29.384C142.797 28.792 143.357 28.328 144.061 27.992C144.765 27.64 145.557 27.464 146.437 27.464ZM153.633 34.304C153.633 32.912 153.913 31.696 154.473 30.656C155.049 29.616 155.841 28.816 156.849 28.256C157.873 27.696 159.041 27.416 160.353 27.416C162.033 27.416 163.433 27.856 164.553 28.736C165.689 29.616 166.433 30.856 166.785 32.456H162.417C162.049 31.432 161.337 30.92 160.281 30.92C159.529 30.92 158.929 31.216 158.481 31.808C158.033 32.384 157.809 33.216 157.809 34.304C157.809 35.392 158.033 36.232 158.481 36.824C158.929 37.4 159.529 37.688 160.281 37.688C161.337 37.688 162.049 37.176 162.417 36.152H166.785C166.433 37.72 165.689 38.952 164.553 39.848C163.417 40.744 162.017 41.192 160.353 41.192C159.041 41.192 157.873 40.912 156.849 40.352C155.841 39.792 155.049 38.992 154.473 37.952C153.913 36.912 153.633 35.696 153.633 34.304ZM181.604 34.088C181.604 34.472 181.58 34.872 181.532 35.288H172.244C172.308 36.12 172.572 36.76 173.036 37.208C173.516 37.64 174.1 37.856 174.788 37.856C175.812 37.856 176.524 37.424 176.924 36.56H181.292C181.068 37.44 180.66 38.232 180.068 38.936C179.492 39.64 178.764 40.192 177.884 40.592C177.004 40.992 176.02 41.192 174.932 41.192C173.62 41.192 172.452 40.912 171.428 40.352C170.404 39.792 169.604 38.992 169.028 37.952C168.452 36.912 168.164 35.696 168.164 34.304C168.164 32.912 168.444 31.696 169.004 30.656C169.58 29.616 170.38 28.816 171.404 28.256C172.428 27.696 173.604 27.416 174.932 27.416C176.228 27.416 177.38 27.688 178.388 28.232C179.396 28.776 180.18 29.552 180.74 30.56C181.316 31.568 181.604 32.744 181.604 34.088ZM177.404 33.008C177.404 32.304 177.164 31.744 176.684 31.328C176.204 30.912 175.604 30.704 174.884 30.704C174.196 30.704 173.612 30.904 173.132 31.304C172.668 31.704 172.38 32.272 172.268 33.008H177.404ZM187.873 29.84C188.353 29.104 188.953 28.528 189.673 28.112C190.393 27.68 191.193 27.464 192.073 27.464V31.808H190.945C189.921 31.808 189.153 32.032 188.641 32.48C188.129 32.912 187.873 33.68 187.873 34.784V41H183.769V27.608H187.873V29.84Z" fill="#775A7C"/>
</svg>
