<svg width="50" height="50" viewBox="0 0 50 50" fill="none" xmlns="http://www.w3.org/2000/svg">
<path fill-rule="evenodd" clip-rule="evenodd" d="M2.08337 5.91248C2.08337 4.89693 2.4868 3.92296 3.20491 3.20485C3.92302 2.48675 4.89698 2.08332 5.91254 2.08332H44.0834C44.5867 2.0825 45.0852 2.18095 45.5503 2.37304C46.0155 2.56513 46.4382 2.84709 46.7943 3.20277C47.1504 3.55845 47.4328 3.98087 47.6254 4.44584C47.818 4.91081 47.917 5.4092 47.9167 5.91248V44.0833C47.9173 44.5867 47.8186 45.0852 47.6262 45.5504C47.4339 46.0156 47.1518 46.4383 46.7959 46.7944C46.4401 47.1504 46.0175 47.4328 45.5524 47.6254C45.0873 47.8179 44.5888 47.9169 44.0855 47.9166H5.91254C5.40951 47.9166 4.91141 47.8175 4.4467 47.625C3.98199 47.4324 3.55977 47.1502 3.20417 46.7944C2.84858 46.4386 2.56657 46.0162 2.37425 45.5514C2.18194 45.0866 2.0831 44.5884 2.08337 44.0854V5.91248ZM20.225 19.5583H26.4313V22.675C27.3271 20.8833 29.6188 19.2708 33.0625 19.2708C39.6646 19.2708 41.2292 22.8396 41.2292 29.3875V41.5166H34.548V30.8792C34.548 27.15 33.6521 25.0458 31.3771 25.0458C28.2209 25.0458 26.9084 27.3146 26.9084 30.8792V41.5166H20.225V19.5583ZM8.76671 41.2312H15.45V19.2708H8.76671V41.2291V41.2312ZM16.4063 12.1083C16.4189 12.6806 16.3171 13.2495 16.1068 13.7819C15.8965 14.3142 15.582 14.7992 15.1818 15.2084C14.7815 15.6175 14.3036 15.9426 13.776 16.1646C13.2484 16.3865 12.6818 16.5009 12.1094 16.5009C11.537 16.5009 10.9704 16.3865 10.4428 16.1646C9.91525 15.9426 9.43731 15.6175 9.03706 15.2084C8.63681 14.7992 8.32232 14.3142 8.11204 13.7819C7.90177 13.2495 7.79994 12.6806 7.81254 12.1083C7.83728 10.9851 8.30084 9.91622 9.10397 9.13058C9.9071 8.34494 10.9859 7.90502 12.1094 7.90502C13.2329 7.90502 14.3117 8.34494 15.1149 9.13058C15.918 9.91622 16.3816 10.9851 16.4063 12.1083Z" fill="#775A7C"/>
</svg>
