<svg width="178" height="47" viewBox="0 0 178 47" fill="none" xmlns="http://www.w3.org/2000/svg">
<path d="M48.7098 29.6831C45.8169 29.6831 43.1063 28.6009 40.6435 26.8392L41.2432 24.3522L41.2693 24.26C41.8033 21.612 43.4974 17.1673 48.7098 17.1673C52.6188 17.1673 55.7985 19.9769 55.7985 23.4309C55.7853 26.8736 52.606 29.6831 48.7098 29.6831ZM48.7098 10.8232C42.0508 10.8232 36.8909 14.6459 34.7931 20.9325C31.5874 16.6838 29.1635 11.5832 27.7433 7.28839H20.5764V23.7648C20.5764 27.0118 17.5793 29.6598 13.9045 29.6598C10.2298 29.6598 7.23302 27.0118 7.23302 23.7648V7.28839H0.0653894V23.7648C0.0393151 30.5122 6.25506 36.0502 13.891 36.0502C21.5273 36.0502 27.743 30.5122 27.743 23.7648V21.0016C29.1371 23.5691 30.8441 26.1597 32.9161 28.4627L28.5245 46.7005H35.8611L39.0404 33.4711C41.829 35.0485 45.0347 36.0389 48.7094 36.0389C56.5668 36.0389 62.9651 30.3509 62.9651 23.4079C62.9651 16.4764 56.5668 10.8232 48.7094 10.8232H48.7098Z" fill="#6FDA44"/>
<path d="M84.8431 11.5371L89.469 28.0135L94.5643 11.5371H100.636L92.8051 35.348H86.7326L81.9245 18.7677L77.129 35.3363H71.0568L63.2248 11.5258H69.2973L74.3922 28.0022L79.0181 11.5258H84.8428V11.5374L84.8431 11.5371ZM115.166 10.8232C107.282 10.8232 100.897 16.4764 100.897 23.4309C100.897 30.397 107.295 36.0389 115.166 36.0389C123.049 36.0389 129.447 30.397 129.447 23.4309C129.447 16.4651 123.049 10.8232 115.166 10.8232ZM115.166 30.8575C110.527 30.8575 106.774 27.5414 106.774 23.4426C106.774 19.3434 110.54 16.0276 115.166 16.0276C119.805 16.0276 123.557 19.3434 123.557 23.4426C123.557 27.53 119.805 30.8575 115.166 30.8575ZM146.791 16.8681C142.713 16.8681 139.416 19.7925 139.416 23.3848V35.3363H133.304V11.5371H139.416V15.1985C139.416 15.1985 142.022 11.5254 147.378 11.5254H149.254V16.8681H146.791ZM167.302 22.5099C171.641 20.3452 174.586 16.2347 174.586 11.5254H168.474C168.474 15.4977 164.826 18.7217 160.33 18.7217H159.509V0.0460815H153.398V35.336H159.509V24.1218H160.239C160.839 24.1218 161.621 24.4673 161.972 24.8931L170.651 35.3363H177.974L167.302 22.5099Z" fill="#4C4A4D"/>
</svg>
