<svg width="50" height="50" viewBox="0 0 50 50" fill="none" xmlns="http://www.w3.org/2000/svg">
<path d="M42.9688 5.46875H7.03125C6.16699 5.46875 5.46875 6.16699 5.46875 7.03125V42.9688C5.46875 43.833 6.16699 44.5312 7.03125 44.5312H42.9688C43.833 44.5312 44.5312 43.833 44.5312 42.9688V7.03125C44.5312 6.16699 43.833 5.46875 42.9688 5.46875ZM25.0537 25.2979L15.6787 33.1592C15.4248 33.374 15.0391 33.1934 15.0391 32.8613V29.7998C15.0391 29.6875 15.0928 29.5752 15.1807 29.502L20.542 25L15.1807 20.498C15.1358 20.4626 15.0997 20.4173 15.0751 20.3656C15.0506 20.314 15.0382 20.2574 15.0391 20.2002V17.1387C15.0391 16.8066 15.4248 16.626 15.6787 16.8408L25.0537 24.6973C25.2441 24.8535 25.2441 25.1416 25.0537 25.2979V25.2979ZM34.9609 32.8613C34.9609 33.0762 34.7949 33.252 34.5947 33.252H25.5615C25.3613 33.252 25.1953 33.0762 25.1953 32.8613V30.5176C25.1953 30.3027 25.3613 30.127 25.5615 30.127H34.5947C34.7949 30.127 34.9609 30.3027 34.9609 30.5176V32.8613Z" fill="#FA00EF" fill-opacity="0.9"/>
</svg>
