<svg width="50" height="50" viewBox="0 0 50 50" fill="none" xmlns="http://www.w3.org/2000/svg">
<path d="M29.19 36L22.56 26.73V36H16.68V14.85H22.56V23.97L29.13 14.85H35.91L28.14 25.11L36.3 36H29.19Z" fill="#FA00EF" fill-opacity="0.9"/>
<path d="M42.6777 7.32233C39.1814 3.82602 34.7268 1.445 29.8773 0.480367C25.0277 -0.484263 20.0011 0.0108216 15.4329 1.90301C10.8648 3.7952 6.96029 6.99952 4.21326 11.1107C1.46622 15.222 -7.46603e-07 20.0555 0 25C7.46604e-07 29.9445 1.46623 34.778 4.21326 38.8893C6.9603 43.0005 10.8648 46.2048 15.4329 48.097C20.0011 49.9892 25.0277 50.4843 29.8773 49.5196C34.7268 48.555 39.1814 46.174 42.6777 42.6777L37.9104 37.9104C35.357 40.4638 32.1037 42.2027 28.562 42.9072C25.0203 43.6117 21.3492 43.2501 18.013 41.8682C14.6767 40.4863 11.8252 38.1461 9.81899 35.1436C7.81277 32.1411 6.74195 28.6111 6.74195 25C6.74195 21.3889 7.81277 17.8589 9.81899 14.8564C11.8252 11.8539 14.6767 9.51367 18.0129 8.13177C21.3492 6.74986 25.0203 6.38829 28.562 7.09278C32.1037 7.79727 35.357 9.53618 37.9104 12.0896L42.6777 7.32233Z" fill="#FA00EF" fill-opacity="0.9"/>
</svg>
