<svg width="42" height="42" viewBox="0 0 42 42" fill="none" xmlns="http://www.w3.org/2000/svg">
<path d="M31.9307 14.4277C31.7576 8.29952 26.234 3.48487 19.5906 3.67101C12.9503 3.85707 7.70452 8.97385 7.87755 15.0992C7.95203 17.7701 9.43915 20.0831 11.0503 22.2401C12.7424 24.5044 13.9106 26.6962 15.2073 29.1384C15.9677 30.5742 17.9507 31.0892 19.6715 31.1528C21.3547 31.2116 23.4834 30.9789 24.8606 29.881C27.0183 28.1625 26.9835 24.986 28.373 22.8297C30.0749 20.195 32.0195 17.6345 31.9307 14.4277V14.4277Z" fill="#90CAF9"/>
<path d="M23.843 37.9322C24.0238 37.7929 24.1727 37.6326 24.2729 37.4049C24.3934 37.1203 24.3426 36.8559 24.3034 36.56C24.2717 36.3076 24.2938 36.1976 24.4609 36.0181C24.6493 35.8161 24.8414 35.6328 24.868 35.3414C24.8872 35.1251 24.8348 34.9202 24.7887 34.7151C24.7648 34.6407 24.7503 34.563 24.7482 34.4849C24.7875 34.3181 24.9937 34.197 25.1063 34.0814C25.3984 33.7829 25.6657 33.3725 25.7422 32.9609C25.7916 32.7032 25.7692 32.335 25.601 32.1238C25.352 31.8115 25.0336 31.9482 24.7312 32.0938C24.6324 32.1403 24.5464 32.1988 24.4477 32.2483C22.573 33.2206 20.3363 33.2804 18.3078 32.825C17.7921 32.7106 17.2756 32.5681 16.7916 32.356C16.4089 32.1911 15.8695 32.0086 15.6227 32.4841C15.4146 32.8836 15.5411 33.4054 15.711 33.7979C15.8109 34.0265 16.0193 34.221 16.1927 34.3946C16.3597 34.5621 16.4339 34.6476 16.3929 34.8675C16.3545 35.0686 16.3903 35.2365 16.4144 35.439C16.4499 35.7132 16.4944 35.9746 16.6784 36.1916C16.8559 36.4026 17.1165 36.5613 17.2757 36.7853C17.4153 36.9785 17.4192 37.2441 17.5033 37.4638C17.6442 37.8227 17.9699 38.1985 18.2944 38.4086C18.6634 38.6457 19.1503 38.6171 19.4745 38.9336C19.9015 39.3536 20.5034 39.6501 21.1146 39.5962C21.8632 39.5325 22.2507 38.9407 22.8118 38.5318C23.0295 38.3728 23.3058 38.2998 23.5362 38.1498C23.6405 38.0751 23.745 38.0067 23.843 37.9322Z" fill="#8D13A5"/>
</svg>
