<svg width="50" height="50" viewBox="0 0 50 50" fill="none" xmlns="http://www.w3.org/2000/svg">
<path d="M4.91313 28.8239C2.78057 17.1287 10.2804 5.93584 21.6646 3.82394C33.0487 1.71204 44.0061 9.48086 46.1387 21.1761C48.2712 32.8713 40.7714 44.0642 29.3872 46.1761C18.0031 48.288 7.04569 40.5192 4.91313 28.8239ZM38.759 22.5451C37.3899 15.037 30.3554 10.0495 23.047 11.4053C15.7386 12.7611 10.9238 19.9468 12.2928 27.4549C13.6619 34.963 20.6964 39.9505 28.0048 38.5947C35.3132 37.2389 40.128 30.0532 38.759 22.5451Z" fill="#6CE5E8"/>
<path d="M5.27135 30.1128C4.48279 26.9916 4.3859 23.735 4.98782 20.5828C5.58974 17.4307 6.87514 14.4633 8.74932 11.8994C10.6235 9.33547 13.0387 7.24028 15.817 5.76818C18.5953 4.29609 21.6659 3.4846 24.8025 3.3935L24.6403 3.56678C22.6444 5.69945 22.8434 9.06864 25.0755 10.9353V10.9353C23.0392 10.9945 21.0458 11.5213 19.2421 12.477C17.4385 13.4327 15.8705 14.7929 14.6538 16.4574C13.4371 18.1219 12.6026 20.0483 12.2118 22.0946C11.8211 24.141 11.884 26.2552 12.3959 28.2815V28.2815C10.1472 26.8614 7.17707 27.4487 5.62339 29.6206L5.27135 30.1128Z" fill="black"/>
</svg>
