<svg width="50" height="50" viewBox="0 0 50 50" fill="none" xmlns="http://www.w3.org/2000/svg">
<path d="M33.3333 33.3333C37.9357 33.3333 41.6667 29.6024 41.6667 25C41.6667 20.3976 37.9357 16.6667 33.3333 16.6667C28.731 16.6667 25 20.3976 25 25C25 29.6024 28.731 33.3333 33.3333 33.3333Z" fill="#19BCFE"/>
<path fill-rule="evenodd" clip-rule="evenodd" d="M16.6667 50C18.8768 50 20.9964 49.122 22.5592 47.5592C24.122 45.9964 25 43.8768 25 41.6667V33.3333H16.6667C14.4565 33.3333 12.3369 34.2113 10.7741 35.7741C9.2113 37.3369 8.33333 39.4565 8.33333 41.6667C8.33333 43.8768 9.2113 45.9964 10.7741 47.5592C12.3369 49.122 14.4565 50 16.6667 50Z" fill="#09CF83"/>
<path fill-rule="evenodd" clip-rule="evenodd" d="M16.6667 33.3333H25V16.6667H16.6667C14.4565 16.6667 12.3369 17.5446 10.7741 19.1074C9.2113 20.6703 8.33333 22.7899 8.33333 25C8.33333 27.2101 9.2113 29.3298 10.7741 30.8926C12.3369 32.4554 14.4565 33.3333 16.6667 33.3333Z" fill="#A259FF"/>
<path fill-rule="evenodd" clip-rule="evenodd" d="M16.6667 16.6667H25V0H16.6667C14.4565 0 12.3369 0.877974 10.7741 2.44078C9.2113 4.00358 8.33333 6.1232 8.33333 8.33333C8.33333 10.5435 9.2113 12.6631 10.7741 14.2259C12.3369 15.7887 14.4565 16.6667 16.6667 16.6667Z" fill="#F24E1E"/>
<path fill-rule="evenodd" clip-rule="evenodd" d="M33.3333 16.6667H25V0H33.3333C35.5435 0 37.6631 0.877974 39.2259 2.44078C40.7887 4.00358 41.6667 6.1232 41.6667 8.33333C41.6667 10.5435 40.7887 12.6631 39.2259 14.2259C37.6631 15.7887 35.5435 16.6667 33.3333 16.6667Z" fill="#FF7262"/>
</svg>
