<svg width="100" height="100" viewBox="0 0 100 100" fill="none" xmlns="http://www.w3.org/2000/svg">
<path d="M95.85 64.9499C96.3944 64.9505 96.9336 64.8438 97.4369 64.6359C97.9401 64.4281 98.3974 64.1232 98.7828 63.7386C99.1681 63.354 99.474 62.8973 99.6828 62.3945C99.8917 61.8917 99.9995 61.3527 100 60.8083C100.001 60.2638 99.8939 59.7246 99.686 59.2214C99.4782 58.7182 99.1732 58.2609 98.7887 57.8755C98.4041 57.4901 97.9473 57.1843 97.4446 56.9754C96.9418 56.7666 96.4028 56.6588 95.8583 56.6583C94.7588 56.6572 93.7038 57.0929 92.9256 57.8696C92.1473 58.6463 91.7094 59.7004 91.7083 60.7999C91.7072 61.8995 92.143 62.9544 92.9197 63.7327C93.6964 64.511 94.7505 64.9488 95.85 64.9499ZM91.7 49.5124H88.1583C85.8833 49.5124 84.6583 51.2208 84.6583 54.0624V64.3374H77.95V49.5124H75.1C72.8208 49.5124 71.6 51.2208 71.6 54.0624V64.3374H64.8917V44.0291H71.6V47.1124C72.7 44.7208 74.2083 44.0291 76.4458 44.0291H84.6625V47.1124C85.7625 44.7208 87.2667 44.0291 89.5042 44.0291H91.7V49.5124ZM63.425 55.7666H49.4292C49.7958 58.0416 51.2208 59.3416 53.6208 59.3416C55.4125 59.3416 56.6708 58.6124 57.0792 57.3124L63.0167 58.9791C61.5542 62.5124 57.9333 64.6624 53.6208 64.6624C46.3375 64.6624 43 59.0166 43 54.1833C43 49.4333 45.9292 43.7458 53.2083 43.7458C60.9417 43.7458 63.5042 49.5124 63.5042 53.7791C63.5042 54.7124 63.4625 55.3208 63.4208 55.7666H63.425ZM56.9167 51.8291C56.75 50.0791 55.4917 48.4541 53.2125 48.4541C51.0958 48.4541 49.8375 49.3916 49.4292 51.8291H56.9167ZM31.2833 64.3333H37.1833L44.5458 44.0249H37.7958L34.2125 55.8458L30.5542 44.0249H23.8333L31.2792 64.3333H31.2833ZM3.78333 64.3333H10.4583V49.5083H16.8083V64.3333H23.4375V44.0249H10.4583V42.7666C10.4583 41.3833 11.4375 40.5333 12.9833 40.5333H16.8083V35.0499H11.875C7.03333 35.0499 3.77917 38.0166 3.77917 42.3624V44.0291H0V49.5124H3.78333V64.3374V64.3333Z" fill="#57A5D5"/>
</svg>
