<svg width="181" height="60" viewBox="0 0 181 60" fill="none" xmlns="http://www.w3.org/2000/svg">
<path d="M35.24 7.69006L39.325 13.4201L60 7.69006H35.24ZM13.7575 52.3101L24.9425 41.3751L18.2125 34.1501L13.7575 52.3101ZM33.545 7.69006L27.5675 13.0751L37.6225 13.4501L33.545 7.69006ZM10.31 7.69256L12.4525 12.0926L24.2875 12.8276L10.31 7.69256ZM16.6425 30.5076L25.385 14.2026L0 12.8251L16.6425 30.5076ZM17.66 31.5376L25.9175 40.4076L35.025 31.4826L37.85 14.8526L26.7525 14.2826L17.66 31.5376Z" fill="white"/>
<path d="M60.9091 24.152V27.44H54.0451V30.992H59.1811V34.184H54.0451V41H49.9411V24.152H60.9091ZM67.1701 29.84C67.6501 29.104 68.2501 28.528 68.9701 28.112C69.6901 27.68 70.4901 27.464 71.3701 27.464V31.808H70.2421C69.2181 31.808 68.4501 32.032 67.9381 32.48C67.4261 32.912 67.1701 33.68 67.1701 34.784V41H63.0661V27.608H67.1701V29.84ZM85.9557 34.088C85.9557 34.472 85.9318 34.872 85.8838 35.288H76.5958C76.6598 36.12 76.9238 36.76 77.3878 37.208C77.8678 37.64 78.4518 37.856 79.1398 37.856C80.1638 37.856 80.8758 37.424 81.2758 36.56H85.6438C85.4198 37.44 85.0118 38.232 84.4198 38.936C83.8438 39.64 83.1158 40.192 82.2358 40.592C81.3558 40.992 80.3718 41.192 79.2838 41.192C77.9718 41.192 76.8038 40.912 75.7798 40.352C74.7558 39.792 73.9558 38.992 73.3798 37.952C72.8038 36.912 72.5158 35.696 72.5158 34.304C72.5158 32.912 72.7958 31.696 73.3558 30.656C73.9318 29.616 74.7318 28.816 75.7558 28.256C76.7798 27.696 77.9558 27.416 79.2838 27.416C80.5798 27.416 81.7318 27.688 82.7398 28.232C83.7478 28.776 84.5318 29.552 85.0918 30.56C85.6678 31.568 85.9557 32.744 85.9557 34.088ZM81.7558 33.008C81.7558 32.304 81.5158 31.744 81.0358 31.328C80.5558 30.912 79.9558 30.704 79.2358 30.704C78.5478 30.704 77.9638 30.904 77.4838 31.304C77.0198 31.704 76.7318 32.272 76.6198 33.008H81.7558ZM100.745 34.088C100.745 34.472 100.721 34.872 100.673 35.288H91.3848C91.4488 36.12 91.7128 36.76 92.1768 37.208C92.6568 37.64 93.2408 37.856 93.9288 37.856C94.9528 37.856 95.6648 37.424 96.0648 36.56H100.433C100.209 37.44 99.8008 38.232 99.2088 38.936C98.6328 39.64 97.9048 40.192 97.0248 40.592C96.1448 40.992 95.1608 41.192 94.0728 41.192C92.7608 41.192 91.5928 40.912 90.5688 40.352C89.5448 39.792 88.7448 38.992 88.1688 37.952C87.5928 36.912 87.3048 35.696 87.3048 34.304C87.3048 32.912 87.5848 31.696 88.1448 30.656C88.7208 29.616 89.5208 28.816 90.5448 28.256C91.5688 27.696 92.7448 27.416 94.0728 27.416C95.3688 27.416 96.5208 27.688 97.5288 28.232C98.5368 28.776 99.3208 29.552 99.8808 30.56C100.457 31.568 100.745 32.744 100.745 34.088ZM96.5448 33.008C96.5448 32.304 96.3048 31.744 95.8248 31.328C95.3448 30.912 94.7448 30.704 94.0248 30.704C93.3368 30.704 92.7528 30.904 92.2728 31.304C91.8088 31.704 91.5208 32.272 91.4088 33.008H96.5448ZM107.014 23.24V41H102.91V23.24H107.014ZM109.172 34.28C109.172 32.904 109.428 31.696 109.94 30.656C110.468 29.616 111.18 28.816 112.076 28.256C112.972 27.696 113.972 27.416 115.076 27.416C116.02 27.416 116.844 27.608 117.548 27.992C118.268 28.376 118.82 28.88 119.204 29.504V27.608H123.308V41H119.204V39.104C118.804 39.728 118.244 40.232 117.524 40.616C116.82 41 115.996 41.192 115.052 41.192C113.964 41.192 112.972 40.912 112.076 40.352C111.18 39.776 110.468 38.968 109.94 37.928C109.428 36.872 109.172 35.656 109.172 34.28ZM119.204 34.304C119.204 33.28 118.916 32.472 118.34 31.88C117.78 31.288 117.092 30.992 116.276 30.992C115.46 30.992 114.764 31.288 114.188 31.88C113.628 32.456 113.348 33.256 113.348 34.28C113.348 35.304 113.628 36.12 114.188 36.728C114.764 37.32 115.46 37.616 116.276 37.616C117.092 37.616 117.78 37.32 118.34 36.728C118.916 36.136 119.204 35.328 119.204 34.304ZM134.437 27.464C136.005 27.464 137.253 27.976 138.181 29C139.125 30.008 139.597 31.4 139.597 33.176V41H135.517V33.728C135.517 32.832 135.285 32.136 134.821 31.64C134.357 31.144 133.733 30.896 132.949 30.896C132.165 30.896 131.541 31.144 131.077 31.64C130.613 32.136 130.381 32.832 130.381 33.728V41H126.277V27.608H130.381V29.384C130.797 28.792 131.357 28.328 132.061 27.992C132.765 27.64 133.557 27.464 134.437 27.464ZM141.633 34.304C141.633 32.912 141.913 31.696 142.473 30.656C143.049 29.616 143.841 28.816 144.849 28.256C145.873 27.696 147.041 27.416 148.353 27.416C150.033 27.416 151.433 27.856 152.553 28.736C153.689 29.616 154.433 30.856 154.785 32.456H150.417C150.049 31.432 149.337 30.92 148.281 30.92C147.529 30.92 146.929 31.216 146.481 31.808C146.033 32.384 145.809 33.216 145.809 34.304C145.809 35.392 146.033 36.232 146.481 36.824C146.929 37.4 147.529 37.688 148.281 37.688C149.337 37.688 150.049 37.176 150.417 36.152H154.785C154.433 37.72 153.689 38.952 152.553 39.848C151.417 40.744 150.017 41.192 148.353 41.192C147.041 41.192 145.873 40.912 144.849 40.352C143.841 39.792 143.049 38.992 142.473 37.952C141.913 36.912 141.633 35.696 141.633 34.304ZM169.604 34.088C169.604 34.472 169.58 34.872 169.532 35.288H160.244C160.308 36.12 160.572 36.76 161.036 37.208C161.516 37.64 162.1 37.856 162.788 37.856C163.812 37.856 164.524 37.424 164.924 36.56H169.292C169.068 37.44 168.66 38.232 168.068 38.936C167.492 39.64 166.764 40.192 165.884 40.592C165.004 40.992 164.02 41.192 162.932 41.192C161.62 41.192 160.452 40.912 159.428 40.352C158.404 39.792 157.604 38.992 157.028 37.952C156.452 36.912 156.164 35.696 156.164 34.304C156.164 32.912 156.444 31.696 157.004 30.656C157.58 29.616 158.38 28.816 159.404 28.256C160.428 27.696 161.604 27.416 162.932 27.416C164.228 27.416 165.38 27.688 166.388 28.232C167.396 28.776 168.18 29.552 168.74 30.56C169.316 31.568 169.604 32.744 169.604 34.088ZM165.404 33.008C165.404 32.304 165.164 31.744 164.684 31.328C164.204 30.912 163.604 30.704 162.884 30.704C162.196 30.704 161.612 30.904 161.132 31.304C160.668 31.704 160.38 32.272 160.268 33.008H165.404ZM175.873 29.84C176.353 29.104 176.953 28.528 177.673 28.112C178.393 27.68 179.193 27.464 180.073 27.464V31.808H178.945C177.921 31.808 177.153 32.032 176.641 32.48C176.129 32.912 175.873 33.68 175.873 34.784V41H171.769V27.608H175.873V29.84Z" fill="white"/>
</svg>
