<svg viewBox="0 0 1439 146" fill="none" xmlns="http://www.w3.org/2000/svg">
<path d="M-1 71.0125L33.3 61.7609C67.6 52.5094 136 34.006 205 21.69C273.3 9.14302 342 3.36002 410 18.568C479 34.006 548 71.0125 616 74.0771C684.7 77.373 753 46.1489 822 49.4448C890.4 52.5094 959 89.5156 1028 95.7026C1096.1 101.658 1165 77.373 1233 55.574C1301.9 34.006 1370 15.503 1405 6.25203L1439 -2.99997V145.025H1404.7C1370.4 145.025 1302 145.025 1233 145.025C1164.7 145.025 1096 145.025 1028 145.025C959 145.025 890 145.025 822 145.025C753.3 145.025 685 145.025 616 145.025C547.6 145.025 479 145.025 410 145.025C341.9 145.025 273 145.025 205 145.025C136.1 145.025 118 145.025 83 145.025H-1V71.0125Z" fill="white"/>
</svg>
