<svg viewBox="0 0 1437 90" fill="none" xmlns="http://www.w3.org/2000/svg">
<path d="M0 45L34.3 39.375C68.6 33.75 137 22.4998 206 15.0117C274.3 7.38301 343 3.86691 411 13.1135C480 22.4998 549 45 617 46.8633C685.7 48.8672 754 29.8828 823 31.8867C891.4 33.75 960 56.25 1029 60.0117C1097.1 63.6328 1166 48.8672 1234 35.6133C1302.9 22.4998 1371 11.2499 1406 5.62527L1440 3.71395e-06V90H1405.7C1371.4 90 1303 90 1234 90C1165.7 90 1097 90 1029 90C960 90 891 90 823 90C754.3 90 686 90 617 90C548.6 90 480 90 411 90C342.9 90 274 90 206 90C137.1 90 119 90 84 90H0V45Z" fill="white"/>
</svg>
