<svg viewBox="0 0 1440 149" fill="none" xmlns="http://www.w3.org/2000/svg">
<path d="M0 74.0125L34.3 64.7609C68.6 55.5094 137 37.006 206 24.69C274.3 12.143 343 6.35999 411 21.568C480 37.006 549 74.0125 617 77.0771C685.7 80.373 754 49.1489 823 52.4448C891.4 55.5094 960 92.5156 1029 98.7026C1097.1 104.658 1166 80.373 1234 58.574C1302.9 37.006 1371 18.503 1406 9.252L1440 0V148.025H1405.7C1371.4 148.025 1303 148.025 1234 148.025C1165.7 148.025 1097 148.025 1029 148.025C960 148.025 891 148.025 823 148.025C754.3 148.025 686 148.025 617 148.025C548.6 148.025 480 148.025 411 148.025C342.9 148.025 274 148.025 206 148.025C137.1 148.025 119 148.025 84 148.025H0V74.0125Z" fill="#FEF9FF"/>
</svg>
