<svg width="50" height="50" viewBox="0 0 50 50" fill="none" xmlns="http://www.w3.org/2000/svg">
<path fill-rule="evenodd" clip-rule="evenodd" d="M2.08337 5.91255C2.08337 4.89699 2.4868 3.92302 3.20491 3.20492C3.92302 2.48681 4.89698 2.08338 5.91254 2.08338H44.0834C44.5867 2.08256 45.0852 2.18101 45.5503 2.3731C46.0155 2.56519 46.4382 2.84715 46.7943 3.20283C47.1504 3.55851 47.4328 3.98093 47.6254 4.4459C47.818 4.91087 47.917 5.40926 47.9167 5.91255V44.0834C47.9173 44.5868 47.8186 45.0853 47.6262 45.5505C47.4339 46.0157 47.1518 46.4384 46.7959 46.7944C46.4401 47.1505 46.0175 47.4329 45.5524 47.6254C45.0873 47.818 44.5888 47.917 44.0855 47.9167H5.91254C5.40951 47.9167 4.91141 47.8176 4.4467 47.625C3.98199 47.4325 3.55977 47.1502 3.20417 46.7944C2.84858 46.4386 2.56657 46.0163 2.37425 45.5515C2.18194 45.0866 2.0831 44.5885 2.08337 44.0855V5.91255ZM20.225 19.5584H26.4313V22.675C27.3271 20.8834 29.6188 19.2709 33.0625 19.2709C39.6646 19.2709 41.2292 22.8396 41.2292 29.3875V41.5167H34.548V30.8792C34.548 27.15 33.6521 25.0459 31.3771 25.0459C28.2209 25.0459 26.9084 27.3146 26.9084 30.8792V41.5167H20.225V19.5584ZM8.76671 41.2313H15.45V19.2709H8.76671V41.2292V41.2313ZM16.4063 12.1084C16.4189 12.6806 16.3171 13.2496 16.1068 13.7819C15.8965 14.3143 15.582 14.7993 15.1818 15.2084C14.7815 15.6176 14.3036 15.9427 13.776 16.1646C13.2484 16.3866 12.6818 16.5009 12.1094 16.5009C11.537 16.5009 10.9704 16.3866 10.4428 16.1646C9.91525 15.9427 9.43731 15.6176 9.03706 15.2084C8.63681 14.7993 8.32232 14.3143 8.11204 13.7819C7.90177 13.2496 7.79994 12.6806 7.81254 12.1084C7.83728 10.9852 8.30084 9.91628 9.10397 9.13064C9.9071 8.34501 10.9859 7.90508 12.1094 7.90508C13.2329 7.90508 14.3117 8.34501 15.1149 9.13064C15.918 9.91628 16.3816 10.9852 16.4063 12.1084Z" fill="#57A5D5"/>
</svg>
