<svg width="142" height="50" viewBox="0 0 142 50" fill="none" xmlns="http://www.w3.org/2000/svg">
<path d="M55.8409 21.5042C56.2409 20.8802 56.7929 20.3762 57.4969 19.9922C58.2009 19.6082 59.0249 19.4162 59.9689 19.4162C61.0729 19.4162 62.0729 19.6962 62.9689 20.2562C63.8649 20.8162 64.5689 21.6162 65.0809 22.6562C65.6089 23.6962 65.8729 24.9042 65.8729 26.2802C65.8729 27.6562 65.6089 28.8722 65.0809 29.9282C64.5689 30.9682 63.8649 31.7762 62.9689 32.3522C62.0729 32.9122 61.0729 33.1922 59.9689 33.1922C59.0409 33.1922 58.2169 33.0002 57.4969 32.6162C56.7929 32.2322 56.2409 31.7362 55.8409 31.1282V39.3842H51.7369V19.6082H55.8409V21.5042ZM61.6969 26.2802C61.6969 25.2562 61.4089 24.4562 60.8329 23.8802C60.2729 23.2882 59.5769 22.9922 58.7449 22.9922C57.9289 22.9922 57.2329 23.2882 56.6569 23.8802C56.0969 24.4722 55.8169 25.2802 55.8169 26.3042C55.8169 27.3282 56.0969 28.1362 56.6569 28.7282C57.2329 29.3202 57.9289 29.6162 58.7449 29.6162C59.5609 29.6162 60.2569 29.3202 60.8329 28.7282C61.4089 28.1202 61.6969 27.3042 61.6969 26.2802ZM75.49 29.5202V33.0002H73.402C71.914 33.0002 70.754 32.6402 69.922 31.9202C69.09 31.1842 68.674 29.9922 68.674 28.3442V23.0162H67.042V19.6082H68.674V16.3442H72.778V19.6082H75.466V23.0162H72.778V28.3922C72.778 28.7922 72.874 29.0802 73.066 29.2562C73.258 29.4322 73.578 29.5202 74.026 29.5202H75.49ZM79.84 18.2162C79.12 18.2162 78.528 18.0082 78.064 17.5922C77.616 17.1602 77.392 16.6322 77.392 16.0082C77.392 15.3682 77.616 14.8402 78.064 14.4242C78.528 13.9922 79.12 13.7762 79.84 13.7762C80.544 13.7762 81.12 13.9922 81.568 14.4242C82.032 14.8402 82.264 15.3682 82.264 16.0082C82.264 16.6322 82.032 17.1602 81.568 17.5922C81.12 18.0082 80.544 18.2162 79.84 18.2162ZM81.88 19.6082V33.0002H77.776V19.6082H81.88ZM90.3021 33.1922C89.1341 33.1922 88.0941 32.9922 87.1821 32.5922C86.2701 32.1922 85.5501 31.6482 85.0221 30.9602C84.4941 30.2562 84.1981 29.4722 84.1341 28.6082H88.1901C88.2381 29.0722 88.4541 29.4482 88.8381 29.7362C89.2221 30.0242 89.6941 30.1682 90.2541 30.1682C90.7661 30.1682 91.1581 30.0722 91.4301 29.8802C91.7181 29.6722 91.8621 29.4082 91.8621 29.0882C91.8621 28.7042 91.6621 28.4242 91.2621 28.2482C90.8621 28.0562 90.2141 27.8482 89.3181 27.6242C88.3581 27.4002 87.5581 27.1682 86.9181 26.9282C86.2781 26.6722 85.7261 26.2802 85.2621 25.7522C84.7981 25.2082 84.5661 24.4802 84.5661 23.5682C84.5661 22.8002 84.7741 22.1042 85.1901 21.4802C85.6221 20.8402 86.2461 20.3362 87.0621 19.9682C87.8941 19.6002 88.8781 19.4162 90.0141 19.4162C91.6941 19.4162 93.0141 19.8322 93.9741 20.6642C94.9501 21.4962 95.5101 22.6002 95.6541 23.9762H91.8621C91.7981 23.5122 91.5901 23.1442 91.2381 22.8722C90.9021 22.6002 90.4541 22.4642 89.8941 22.4642C89.4141 22.4642 89.0461 22.5602 88.7901 22.7522C88.5341 22.9282 88.4061 23.1762 88.4061 23.4962C88.4061 23.8802 88.6061 24.1682 89.0061 24.3602C89.4221 24.5522 90.0621 24.7442 90.9261 24.9362C91.9181 25.1922 92.7261 25.4482 93.3501 25.7042C93.9741 25.9442 94.5181 26.3442 94.9821 26.9042C95.4621 27.4482 95.7101 28.1842 95.7261 29.1122C95.7261 29.8962 95.5021 30.6002 95.0541 31.2242C94.6221 31.8322 93.9901 32.3122 93.1581 32.6642C92.3421 33.0162 91.3901 33.1922 90.3021 33.1922ZM100.301 18.2162C99.5809 18.2162 98.9889 18.0082 98.5249 17.5922C98.0769 17.1602 97.8529 16.6322 97.8529 16.0082C97.8529 15.3682 98.0769 14.8402 98.5249 14.4242C98.9889 13.9922 99.5809 13.7762 100.301 13.7762C101.005 13.7762 101.581 13.9922 102.029 14.4242C102.493 14.8402 102.725 15.3682 102.725 16.0082C102.725 16.6322 102.493 17.1602 102.029 17.5922C101.581 18.0082 101.005 18.2162 100.301 18.2162ZM102.341 19.6082V33.0002H98.2369V19.6082H102.341ZM112.779 29.5202V33.0002H110.691C109.203 33.0002 108.043 32.6402 107.211 31.9202C106.379 31.1842 105.963 29.9922 105.963 28.3442V23.0162H104.331V19.6082H105.963V16.3442H110.067V19.6082H112.755V23.0162H110.067V28.3922C110.067 28.7922 110.163 29.0802 110.355 29.2562C110.547 29.4322 110.867 29.5202 111.315 29.5202H112.779ZM127.689 26.0882C127.689 26.4722 127.665 26.8722 127.617 27.2882H118.329C118.393 28.1202 118.657 28.7602 119.121 29.2082C119.601 29.6402 120.185 29.8562 120.873 29.8562C121.897 29.8562 122.609 29.4242 123.009 28.5602H127.377C127.153 29.4402 126.745 30.2322 126.153 30.9362C125.577 31.6402 124.849 32.1922 123.969 32.5922C123.089 32.9922 122.105 33.1922 121.017 33.1922C119.705 33.1922 118.537 32.9122 117.513 32.3522C116.489 31.7922 115.689 30.9922 115.113 29.9522C114.537 28.9122 114.249 27.6962 114.249 26.3042C114.249 24.9122 114.529 23.6962 115.089 22.6562C115.665 21.6162 116.465 20.8162 117.489 20.2562C118.513 19.6962 119.689 19.4162 121.017 19.4162C122.313 19.4162 123.465 19.6882 124.473 20.2322C125.481 20.7762 126.265 21.5522 126.825 22.5602C127.401 23.5682 127.689 24.7442 127.689 26.0882ZM123.489 25.0082C123.489 24.3042 123.249 23.7442 122.769 23.3282C122.289 22.9122 121.689 22.7042 120.969 22.7042C120.281 22.7042 119.697 22.9042 119.217 23.3042C118.753 23.7042 118.465 24.2722 118.353 25.0082H123.489ZM135.302 33.1922C134.134 33.1922 133.094 32.9922 132.182 32.5922C131.27 32.1922 130.55 31.6482 130.022 30.9602C129.494 30.2562 129.198 29.4722 129.134 28.6082H133.19C133.238 29.0722 133.454 29.4482 133.838 29.7362C134.222 30.0242 134.694 30.1682 135.254 30.1682C135.766 30.1682 136.158 30.0722 136.43 29.8802C136.718 29.6722 136.862 29.4082 136.862 29.0882C136.862 28.7042 136.662 28.4242 136.262 28.2482C135.862 28.0562 135.214 27.8482 134.318 27.6242C133.358 27.4002 132.558 27.1682 131.918 26.9282C131.278 26.6722 130.726 26.2802 130.262 25.7522C129.798 25.2082 129.566 24.4802 129.566 23.5682C129.566 22.8002 129.774 22.1042 130.19 21.4802C130.622 20.8402 131.246 20.3362 132.062 19.9682C132.894 19.6002 133.878 19.4162 135.014 19.4162C136.694 19.4162 138.014 19.8322 138.974 20.6642C139.95 21.4962 140.51 22.6002 140.654 23.9762H136.862C136.798 23.5122 136.59 23.1442 136.238 22.8722C135.902 22.6002 135.454 22.4642 134.894 22.4642C134.414 22.4642 134.046 22.5602 133.79 22.7522C133.534 22.9282 133.406 23.1762 133.406 23.4962C133.406 23.8802 133.606 24.1682 134.006 24.3602C134.422 24.5522 135.062 24.7442 135.926 24.9362C136.918 25.1922 137.726 25.4482 138.35 25.7042C138.974 25.9442 139.518 26.3442 139.982 26.9042C140.462 27.4482 140.71 28.1842 140.726 29.1122C140.726 29.8962 140.502 30.6002 140.054 31.2242C139.622 31.8322 138.99 32.3122 138.158 32.6642C137.342 33.0162 136.39 33.1922 135.302 33.1922Z" fill="#FFFEFE"/>
<path d="M4.91313 28.8239C2.78057 17.1287 10.2804 5.93581 21.6646 3.82391C33.0487 1.71201 44.0061 9.48083 46.1387 21.176C48.2712 32.8713 40.7714 44.0641 29.3872 46.176C18.0031 48.2879 7.04569 40.5191 4.91313 28.8239ZM38.759 22.5451C37.3899 15.0369 30.3554 10.0495 23.047 11.4053C15.7386 12.7611 10.9238 19.9467 12.2928 27.4549C13.6619 34.963 20.6964 39.9505 28.0048 38.5947C35.3132 37.2389 40.128 30.0532 38.759 22.5451Z" fill="#6CE5E8"/>
<path d="M5.27135 30.1128C4.48279 26.9916 4.3859 23.735 4.98782 20.5828C5.58974 17.4307 6.87514 14.4633 8.74932 11.8994C10.6235 9.33547 13.0387 7.24028 15.817 5.76818C18.5953 4.29609 21.6659 3.4846 24.8025 3.3935L24.6403 3.56678C22.6444 5.69945 22.8434 9.06864 25.0755 10.9353V10.9353C23.0392 10.9945 21.0458 11.5213 19.2421 12.477C17.4385 13.4327 15.8705 14.7929 14.6538 16.4574C13.4371 18.1219 12.6026 20.0483 12.2118 22.0946C11.8211 24.141 11.884 26.2552 12.3959 28.2815V28.2815C10.1472 26.8614 7.17707 27.4487 5.62339 29.6206L5.27135 30.1128Z" fill="white"/>
</svg>
