<svg width="142" height="50" viewBox="0 0 142 50" fill="none" xmlns="http://www.w3.org/2000/svg">
<path d="M4.91313 28.8239C2.78057 17.1287 10.2804 5.93584 21.6646 3.82394C33.0487 1.71204 44.0061 9.48086 46.1387 21.1761C48.2712 32.8713 40.7714 44.0642 29.3872 46.1761C18.0031 48.288 7.04569 40.5192 4.91313 28.8239ZM38.759 22.5451C37.3899 15.037 30.3554 10.0495 23.047 11.4053C15.7386 12.7611 10.9238 19.9468 12.2928 27.4549C13.6619 34.963 20.6964 39.9505 28.0048 38.5947C35.3132 37.2389 40.128 30.0532 38.759 22.5451Z" fill="#6CE5E8"/>
<path d="M5.27135 30.1128C4.48279 26.9916 4.3859 23.735 4.98782 20.5828C5.58974 17.4307 6.87514 14.4633 8.74932 11.8994C10.6235 9.33547 13.0387 7.24028 15.817 5.76818C18.5953 4.29609 21.6659 3.4846 24.8025 3.3935L24.6403 3.56678C22.6444 5.69945 22.8434 9.06864 25.0755 10.9353V10.9353C23.0392 10.9945 21.0458 11.5213 19.2421 12.477C17.4385 13.4327 15.8705 14.7929 14.6538 16.4574C13.4371 18.1219 12.6026 20.0483 12.2118 22.0946C11.8211 24.141 11.884 26.2552 12.3959 28.2815V28.2815C10.1472 26.8614 7.17707 27.4487 5.62339 29.6206L5.27135 30.1128Z" fill="black"/>
<path d="M55.842 21.504C56.242 20.88 56.794 20.376 57.498 19.992C58.202 19.608 59.026 19.416 59.97 19.416C61.074 19.416 62.074 19.696 62.97 20.256C63.866 20.816 64.57 21.616 65.082 22.656C65.61 23.696 65.874 24.904 65.874 26.28C65.874 27.656 65.61 28.872 65.082 29.928C64.57 30.968 63.866 31.776 62.97 32.352C62.074 32.912 61.074 33.192 59.97 33.192C59.042 33.192 58.218 33 57.498 32.616C56.794 32.232 56.242 31.736 55.842 31.128V39.384H51.738V19.608H55.842V21.504ZM61.698 26.28C61.698 25.256 61.41 24.456 60.834 23.88C60.274 23.288 59.578 22.992 58.746 22.992C57.93 22.992 57.234 23.288 56.658 23.88C56.098 24.472 55.818 25.28 55.818 26.304C55.818 27.328 56.098 28.136 56.658 28.728C57.234 29.32 57.93 29.616 58.746 29.616C59.562 29.616 60.258 29.32 60.834 28.728C61.41 28.12 61.698 27.304 61.698 26.28ZM75.4911 29.52V33H73.4031C71.9151 33 70.7551 32.64 69.9231 31.92C69.0911 31.184 68.6751 29.992 68.6751 28.344V23.016H67.0431V19.608H68.6751V16.344H72.7791V19.608H75.4671V23.016H72.7791V28.392C72.7791 28.792 72.8751 29.08 73.0671 29.256C73.2591 29.432 73.5791 29.52 74.0271 29.52H75.4911ZM79.8411 18.216C79.1211 18.216 78.5291 18.008 78.0651 17.592C77.6171 17.16 77.3931 16.632 77.3931 16.008C77.3931 15.368 77.6171 14.84 78.0651 14.424C78.5291 13.992 79.1211 13.776 79.8411 13.776C80.5451 13.776 81.1211 13.992 81.5691 14.424C82.0331 14.84 82.2651 15.368 82.2651 16.008C82.2651 16.632 82.0331 17.16 81.5691 17.592C81.1211 18.008 80.5451 18.216 79.8411 18.216ZM81.8811 19.608V33H77.7771V19.608H81.8811ZM90.3032 33.192C89.1352 33.192 88.0952 32.992 87.1832 32.592C86.2712 32.192 85.5512 31.648 85.0232 30.96C84.4952 30.256 84.1992 29.472 84.1352 28.608H88.1912C88.2392 29.072 88.4552 29.448 88.8392 29.736C89.2232 30.024 89.6952 30.168 90.2552 30.168C90.7672 30.168 91.1592 30.072 91.4312 29.88C91.7192 29.672 91.8632 29.408 91.8632 29.088C91.8632 28.704 91.6632 28.424 91.2632 28.248C90.8632 28.056 90.2152 27.848 89.3192 27.624C88.3592 27.4 87.5592 27.168 86.9192 26.928C86.2792 26.672 85.7272 26.28 85.2632 25.752C84.7992 25.208 84.5672 24.48 84.5672 23.568C84.5672 22.8 84.7752 22.104 85.1912 21.48C85.6232 20.84 86.2472 20.336 87.0632 19.968C87.8952 19.6 88.8792 19.416 90.0152 19.416C91.6952 19.416 93.0152 19.832 93.9752 20.664C94.9512 21.496 95.5112 22.6 95.6552 23.976H91.8632C91.7992 23.512 91.5912 23.144 91.2392 22.872C90.9032 22.6 90.4552 22.464 89.8952 22.464C89.4152 22.464 89.0472 22.56 88.7912 22.752C88.5352 22.928 88.4072 23.176 88.4072 23.496C88.4072 23.88 88.6072 24.168 89.0072 24.36C89.4232 24.552 90.0632 24.744 90.9272 24.936C91.9192 25.192 92.7272 25.448 93.3512 25.704C93.9752 25.944 94.5192 26.344 94.9832 26.904C95.4632 27.448 95.7112 28.184 95.7272 29.112C95.7272 29.896 95.5032 30.6 95.0552 31.224C94.6232 31.832 93.9912 32.312 93.1592 32.664C92.3432 33.016 91.3912 33.192 90.3032 33.192ZM100.302 18.216C99.582 18.216 98.99 18.008 98.526 17.592C98.078 17.16 97.854 16.632 97.854 16.008C97.854 15.368 98.078 14.84 98.526 14.424C98.99 13.992 99.582 13.776 100.302 13.776C101.006 13.776 101.582 13.992 102.03 14.424C102.494 14.84 102.726 15.368 102.726 16.008C102.726 16.632 102.494 17.16 102.03 17.592C101.582 18.008 101.006 18.216 100.302 18.216ZM102.342 19.608V33H98.238V19.608H102.342ZM112.78 29.52V33H110.692C109.204 33 108.044 32.64 107.212 31.92C106.38 31.184 105.964 29.992 105.964 28.344V23.016H104.332V19.608H105.964V16.344H110.068V19.608H112.756V23.016H110.068V28.392C110.068 28.792 110.164 29.08 110.356 29.256C110.548 29.432 110.868 29.52 111.316 29.52H112.78ZM127.69 26.088C127.69 26.472 127.666 26.872 127.618 27.288H118.33C118.394 28.12 118.658 28.76 119.122 29.208C119.602 29.64 120.186 29.856 120.874 29.856C121.898 29.856 122.61 29.424 123.01 28.56H127.378C127.154 29.44 126.746 30.232 126.154 30.936C125.578 31.64 124.85 32.192 123.97 32.592C123.09 32.992 122.106 33.192 121.018 33.192C119.706 33.192 118.538 32.912 117.514 32.352C116.49 31.792 115.69 30.992 115.114 29.952C114.538 28.912 114.25 27.696 114.25 26.304C114.25 24.912 114.53 23.696 115.09 22.656C115.666 21.616 116.466 20.816 117.49 20.256C118.514 19.696 119.69 19.416 121.018 19.416C122.314 19.416 123.466 19.688 124.474 20.232C125.482 20.776 126.266 21.552 126.826 22.56C127.402 23.568 127.69 24.744 127.69 26.088ZM123.49 25.008C123.49 24.304 123.25 23.744 122.77 23.328C122.29 22.912 121.69 22.704 120.97 22.704C120.282 22.704 119.698 22.904 119.218 23.304C118.754 23.704 118.466 24.272 118.354 25.008H123.49ZM135.303 33.192C134.135 33.192 133.095 32.992 132.183 32.592C131.271 32.192 130.551 31.648 130.023 30.96C129.495 30.256 129.199 29.472 129.135 28.608H133.191C133.239 29.072 133.455 29.448 133.839 29.736C134.223 30.024 134.695 30.168 135.255 30.168C135.767 30.168 136.159 30.072 136.431 29.88C136.719 29.672 136.863 29.408 136.863 29.088C136.863 28.704 136.663 28.424 136.263 28.248C135.863 28.056 135.215 27.848 134.319 27.624C133.359 27.4 132.559 27.168 131.919 26.928C131.279 26.672 130.727 26.28 130.263 25.752C129.799 25.208 129.567 24.48 129.567 23.568C129.567 22.8 129.775 22.104 130.191 21.48C130.623 20.84 131.247 20.336 132.063 19.968C132.895 19.6 133.879 19.416 135.015 19.416C136.695 19.416 138.015 19.832 138.975 20.664C139.951 21.496 140.511 22.6 140.655 23.976H136.863C136.799 23.512 136.591 23.144 136.239 22.872C135.903 22.6 135.455 22.464 134.895 22.464C134.415 22.464 134.047 22.56 133.791 22.752C133.535 22.928 133.407 23.176 133.407 23.496C133.407 23.88 133.607 24.168 134.007 24.36C134.423 24.552 135.063 24.744 135.927 24.936C136.919 25.192 137.727 25.448 138.351 25.704C138.975 25.944 139.519 26.344 139.983 26.904C140.463 27.448 140.711 28.184 140.727 29.112C140.727 29.896 140.503 30.6 140.055 31.224C139.623 31.832 138.991 32.312 138.159 32.664C137.343 33.016 136.391 33.192 135.303 33.192Z" fill="black"/>
</svg>
