<svg width="131" height="40" viewBox="0 0 131 40" fill="none" xmlns="http://www.w3.org/2000/svg">
<path d="M44.842 16.504C45.242 15.88 45.794 15.376 46.498 14.992C47.202 14.608 48.026 14.416 48.97 14.416C50.074 14.416 51.074 14.696 51.97 15.256C52.866 15.816 53.57 16.616 54.082 17.656C54.61 18.696 54.874 19.904 54.874 21.28C54.874 22.656 54.61 23.872 54.082 24.928C53.57 25.968 52.866 26.776 51.97 27.352C51.074 27.912 50.074 28.192 48.97 28.192C48.042 28.192 47.218 28 46.498 27.616C45.794 27.232 45.242 26.736 44.842 26.128V34.384H40.738V14.608H44.842V16.504ZM50.698 21.28C50.698 20.256 50.41 19.456 49.834 18.88C49.274 18.288 48.578 17.992 47.746 17.992C46.93 17.992 46.234 18.288 45.658 18.88C45.098 19.472 44.818 20.28 44.818 21.304C44.818 22.328 45.098 23.136 45.658 23.728C46.234 24.32 46.93 24.616 47.746 24.616C48.562 24.616 49.258 24.32 49.834 23.728C50.41 23.12 50.698 22.304 50.698 21.28ZM64.4911 24.52V28H62.4031C60.9151 28 59.7551 27.64 58.9231 26.92C58.0911 26.184 57.6751 24.992 57.6751 23.344V18.016H56.0431V14.608H57.6751V11.344H61.7791V14.608H64.4671V18.016H61.7791V23.392C61.7791 23.792 61.8751 24.08 62.0671 24.256C62.2591 24.432 62.5791 24.52 63.0271 24.52H64.4911ZM68.8411 13.216C68.1211 13.216 67.5291 13.008 67.0651 12.592C66.6171 12.16 66.3931 11.632 66.3931 11.008C66.3931 10.368 66.6171 9.84 67.0651 9.424C67.5291 8.992 68.1211 8.776 68.8411 8.776C69.5451 8.776 70.1211 8.992 70.5691 9.424C71.0331 9.84 71.2651 10.368 71.2651 11.008C71.2651 11.632 71.0331 12.16 70.5691 12.592C70.1211 13.008 69.5451 13.216 68.8411 13.216ZM70.8811 14.608V28H66.7771V14.608H70.8811ZM79.3032 28.192C78.1352 28.192 77.0952 27.992 76.1832 27.592C75.2712 27.192 74.5512 26.648 74.0232 25.96C73.4952 25.256 73.1992 24.472 73.1352 23.608H77.1912C77.2392 24.072 77.4552 24.448 77.8392 24.736C78.2232 25.024 78.6952 25.168 79.2552 25.168C79.7672 25.168 80.1592 25.072 80.4312 24.88C80.7192 24.672 80.8632 24.408 80.8632 24.088C80.8632 23.704 80.6632 23.424 80.2632 23.248C79.8632 23.056 79.2152 22.848 78.3192 22.624C77.3592 22.4 76.5592 22.168 75.9192 21.928C75.2792 21.672 74.7272 21.28 74.2632 20.752C73.7992 20.208 73.5672 19.48 73.5672 18.568C73.5672 17.8 73.7752 17.104 74.1912 16.48C74.6232 15.84 75.2472 15.336 76.0632 14.968C76.8952 14.6 77.8792 14.416 79.0152 14.416C80.6952 14.416 82.0152 14.832 82.9752 15.664C83.9512 16.496 84.5112 17.6 84.6552 18.976H80.8632C80.7992 18.512 80.5912 18.144 80.2392 17.872C79.9032 17.6 79.4552 17.464 78.8952 17.464C78.4152 17.464 78.0472 17.56 77.7912 17.752C77.5352 17.928 77.4072 18.176 77.4072 18.496C77.4072 18.88 77.6072 19.168 78.0072 19.36C78.4232 19.552 79.0632 19.744 79.9272 19.936C80.9192 20.192 81.7272 20.448 82.3512 20.704C82.9752 20.944 83.5192 21.344 83.9832 21.904C84.4632 22.448 84.7112 23.184 84.7272 24.112C84.7272 24.896 84.5032 25.6 84.0552 26.224C83.6232 26.832 82.9912 27.312 82.1592 27.664C81.3432 28.016 80.3912 28.192 79.3032 28.192ZM89.302 13.216C88.582 13.216 87.99 13.008 87.526 12.592C87.078 12.16 86.854 11.632 86.854 11.008C86.854 10.368 87.078 9.84 87.526 9.424C87.99 8.992 88.582 8.776 89.302 8.776C90.006 8.776 90.582 8.992 91.03 9.424C91.494 9.84 91.726 10.368 91.726 11.008C91.726 11.632 91.494 12.16 91.03 12.592C90.582 13.008 90.006 13.216 89.302 13.216ZM91.342 14.608V28H87.238V14.608H91.342ZM101.78 24.52V28H99.6921C98.2041 28 97.0441 27.64 96.2121 26.92C95.3801 26.184 94.9641 24.992 94.9641 23.344V18.016H93.3321V14.608H94.9641V11.344H99.0681V14.608H101.756V18.016H99.0681V23.392C99.0681 23.792 99.1641 24.08 99.3561 24.256C99.5481 24.432 99.8681 24.52 100.316 24.52H101.78ZM116.69 21.088C116.69 21.472 116.666 21.872 116.618 22.288H107.33C107.394 23.12 107.658 23.76 108.122 24.208C108.602 24.64 109.186 24.856 109.874 24.856C110.898 24.856 111.61 24.424 112.01 23.56H116.378C116.154 24.44 115.746 25.232 115.154 25.936C114.578 26.64 113.85 27.192 112.97 27.592C112.09 27.992 111.106 28.192 110.018 28.192C108.706 28.192 107.538 27.912 106.514 27.352C105.49 26.792 104.69 25.992 104.114 24.952C103.538 23.912 103.25 22.696 103.25 21.304C103.25 19.912 103.53 18.696 104.09 17.656C104.666 16.616 105.466 15.816 106.49 15.256C107.514 14.696 108.69 14.416 110.018 14.416C111.314 14.416 112.466 14.688 113.474 15.232C114.482 15.776 115.266 16.552 115.826 17.56C116.402 18.568 116.69 19.744 116.69 21.088ZM112.49 20.008C112.49 19.304 112.25 18.744 111.77 18.328C111.29 17.912 110.69 17.704 109.97 17.704C109.282 17.704 108.698 17.904 108.218 18.304C107.754 18.704 107.466 19.272 107.354 20.008H112.49ZM124.303 28.192C123.135 28.192 122.095 27.992 121.183 27.592C120.271 27.192 119.551 26.648 119.023 25.96C118.495 25.256 118.199 24.472 118.135 23.608H122.191C122.239 24.072 122.455 24.448 122.839 24.736C123.223 25.024 123.695 25.168 124.255 25.168C124.767 25.168 125.159 25.072 125.431 24.88C125.719 24.672 125.863 24.408 125.863 24.088C125.863 23.704 125.663 23.424 125.263 23.248C124.863 23.056 124.215 22.848 123.319 22.624C122.359 22.4 121.559 22.168 120.919 21.928C120.279 21.672 119.727 21.28 119.263 20.752C118.799 20.208 118.567 19.48 118.567 18.568C118.567 17.8 118.775 17.104 119.191 16.48C119.623 15.84 120.247 15.336 121.063 14.968C121.895 14.6 122.879 14.416 124.015 14.416C125.695 14.416 127.015 14.832 127.975 15.664C128.951 16.496 129.511 17.6 129.655 18.976H125.863C125.799 18.512 125.591 18.144 125.239 17.872C124.903 17.6 124.455 17.464 123.895 17.464C123.415 17.464 123.047 17.56 122.791 17.752C122.535 17.928 122.407 18.176 122.407 18.496C122.407 18.88 122.607 19.168 123.007 19.36C123.423 19.552 124.063 19.744 124.927 19.936C125.919 20.192 126.727 20.448 127.351 20.704C127.975 20.944 128.519 21.344 128.983 21.904C129.463 22.448 129.711 23.184 129.727 24.112C129.727 24.896 129.503 25.6 129.055 26.224C128.623 26.832 127.991 27.312 127.159 27.664C126.343 28.016 125.391 28.192 124.303 28.192Z" fill="black"/>
<path d="M3.9305 23.0592C2.22446 13.703 8.22435 4.74867 17.3316 3.05915C26.4389 1.36963 35.2049 7.58469 36.9109 16.9409C38.617 26.297 32.6171 35.2513 23.5098 36.9409C14.4025 38.6304 5.63655 32.4153 3.9305 23.0592ZM31.0072 18.0361C29.9119 12.0296 24.2843 8.03961 18.4376 9.12426C12.5909 10.2089 8.73902 15.9574 9.83427 21.9639C10.9295 27.9704 16.5571 31.9604 22.4038 30.8758C28.2506 29.7911 32.1024 24.0426 31.0072 18.0361Z" fill="#6CE5E8"/>
<path d="M4.21705 24.0902C3.5862 21.5933 3.50869 18.988 3.99023 16.4663C4.47177 13.9446 5.50009 11.5707 6.99943 9.51954C8.49877 7.46839 10.4309 5.79224 12.6536 4.61456C14.8762 3.43688 17.3327 2.78769 19.842 2.71481L19.1648 3.08894C16.6627 4.47114 17.2572 8.22773 20.0604 8.74828V8.74828C18.4313 8.79559 16.8366 9.21705 15.3937 9.9816C13.9507 10.7461 12.6964 11.8343 11.723 13.1659C10.7496 14.4975 10.0821 16.0386 9.76944 17.6757C9.45682 19.3128 9.50714 21.0042 9.91669 22.6252V22.6252C8.73926 20.1392 5.09352 20.5207 4.43594 23.1988L4.21705 24.0902Z" fill="#1C1B1B"/>
</svg>
