<svg width="141" height="50" viewBox="0 0 141 50" fill="none" xmlns="http://www.w3.org/2000/svg">
<path d="M4.91313 28.8239C2.78057 17.1287 10.2804 5.93581 21.6646 3.82391C33.0487 1.71201 44.0061 9.48083 46.1387 21.176C48.2712 32.8713 40.7714 44.0641 29.3872 46.176C18.0031 48.2879 7.04569 40.5191 4.91313 28.8239ZM38.759 22.5451C37.3899 15.0369 30.3554 10.0495 23.047 11.4053C15.7386 12.7611 10.9238 19.9467 12.2928 27.4549C13.6619 34.963 20.6964 39.9505 28.0048 38.5947C35.3132 37.2389 40.128 30.0532 38.759 22.5451Z" fill="#6CE5E8"/>
<path d="M5.27135 30.1128C4.48279 26.9916 4.3859 23.735 4.98782 20.5828C5.58974 17.4307 6.87514 14.4633 8.74932 11.8994C10.6235 9.33547 13.0387 7.24028 15.817 5.76818C18.5953 4.29609 21.6659 3.4846 24.8025 3.3935L23.956 3.86116C20.8285 5.58891 21.5716 10.2846 25.0755 10.9353V10.9353C23.0392 10.9945 21.0458 11.5213 19.2421 12.477C17.4385 13.4327 15.8705 14.7929 14.6538 16.4574C13.4371 18.1219 12.6026 20.0483 12.2118 22.0946C11.8211 24.141 11.884 26.2552 12.3959 28.2815V28.2815C10.9241 25.174 6.36693 25.6509 5.54496 28.9985L5.27135 30.1128Z" fill="#FFFEFE"/>
<path d="M54.842 24.504C55.242 23.88 55.794 23.376 56.498 22.992C57.202 22.608 58.026 22.416 58.97 22.416C60.074 22.416 61.074 22.696 61.97 23.256C62.866 23.816 63.57 24.616 64.082 25.656C64.61 26.696 64.874 27.904 64.874 29.28C64.874 30.656 64.61 31.872 64.082 32.928C63.57 33.968 62.866 34.776 61.97 35.352C61.074 35.912 60.074 36.192 58.97 36.192C58.042 36.192 57.218 36 56.498 35.616C55.794 35.232 55.242 34.736 54.842 34.128V42.384H50.738V22.608H54.842V24.504ZM60.698 29.28C60.698 28.256 60.41 27.456 59.834 26.88C59.274 26.288 58.578 25.992 57.746 25.992C56.93 25.992 56.234 26.288 55.658 26.88C55.098 27.472 54.818 28.28 54.818 29.304C54.818 30.328 55.098 31.136 55.658 31.728C56.234 32.32 56.93 32.616 57.746 32.616C58.562 32.616 59.258 32.32 59.834 31.728C60.41 31.12 60.698 30.304 60.698 29.28ZM74.4911 32.52V36H72.4031C70.9151 36 69.7551 35.64 68.9231 34.92C68.0911 34.184 67.6751 32.992 67.6751 31.344V26.016H66.0431V22.608H67.6751V19.344H71.7791V22.608H74.4671V26.016H71.7791V31.392C71.7791 31.792 71.8751 32.08 72.0671 32.256C72.2591 32.432 72.5791 32.52 73.0271 32.52H74.4911ZM78.8411 21.216C78.1211 21.216 77.5291 21.008 77.0651 20.592C76.6171 20.16 76.3931 19.632 76.3931 19.008C76.3931 18.368 76.6171 17.84 77.0651 17.424C77.5291 16.992 78.1211 16.776 78.8411 16.776C79.5451 16.776 80.1211 16.992 80.5691 17.424C81.0331 17.84 81.2651 18.368 81.2651 19.008C81.2651 19.632 81.0331 20.16 80.5691 20.592C80.1211 21.008 79.5451 21.216 78.8411 21.216ZM80.8811 22.608V36H76.7771V22.608H80.8811ZM89.3032 36.192C88.1352 36.192 87.0952 35.992 86.1832 35.592C85.2712 35.192 84.5512 34.648 84.0232 33.96C83.4952 33.256 83.1992 32.472 83.1352 31.608H87.1912C87.2392 32.072 87.4552 32.448 87.8392 32.736C88.2232 33.024 88.6952 33.168 89.2552 33.168C89.7672 33.168 90.1592 33.072 90.4312 32.88C90.7192 32.672 90.8632 32.408 90.8632 32.088C90.8632 31.704 90.6632 31.424 90.2632 31.248C89.8632 31.056 89.2152 30.848 88.3192 30.624C87.3592 30.4 86.5592 30.168 85.9192 29.928C85.2792 29.672 84.7272 29.28 84.2632 28.752C83.7992 28.208 83.5672 27.48 83.5672 26.568C83.5672 25.8 83.7752 25.104 84.1912 24.48C84.6232 23.84 85.2472 23.336 86.0632 22.968C86.8952 22.6 87.8792 22.416 89.0152 22.416C90.6952 22.416 92.0152 22.832 92.9752 23.664C93.9512 24.496 94.5112 25.6 94.6552 26.976H90.8632C90.7992 26.512 90.5912 26.144 90.2392 25.872C89.9032 25.6 89.4552 25.464 88.8952 25.464C88.4152 25.464 88.0472 25.56 87.7912 25.752C87.5352 25.928 87.4072 26.176 87.4072 26.496C87.4072 26.88 87.6072 27.168 88.0072 27.36C88.4232 27.552 89.0632 27.744 89.9272 27.936C90.9192 28.192 91.7272 28.448 92.3512 28.704C92.9752 28.944 93.5192 29.344 93.9832 29.904C94.4632 30.448 94.7112 31.184 94.7272 32.112C94.7272 32.896 94.5032 33.6 94.0552 34.224C93.6232 34.832 92.9912 35.312 92.1592 35.664C91.3432 36.016 90.3912 36.192 89.3032 36.192ZM99.302 21.216C98.582 21.216 97.99 21.008 97.526 20.592C97.078 20.16 96.854 19.632 96.854 19.008C96.854 18.368 97.078 17.84 97.526 17.424C97.99 16.992 98.582 16.776 99.302 16.776C100.006 16.776 100.582 16.992 101.03 17.424C101.494 17.84 101.726 18.368 101.726 19.008C101.726 19.632 101.494 20.16 101.03 20.592C100.582 21.008 100.006 21.216 99.302 21.216ZM101.342 22.608V36H97.238V22.608H101.342ZM111.78 32.52V36H109.692C108.204 36 107.044 35.64 106.212 34.92C105.38 34.184 104.964 32.992 104.964 31.344V26.016H103.332V22.608H104.964V19.344H109.068V22.608H111.756V26.016H109.068V31.392C109.068 31.792 109.164 32.08 109.356 32.256C109.548 32.432 109.868 32.52 110.316 32.52H111.78ZM126.69 29.088C126.69 29.472 126.666 29.872 126.618 30.288H117.33C117.394 31.12 117.658 31.76 118.122 32.208C118.602 32.64 119.186 32.856 119.874 32.856C120.898 32.856 121.61 32.424 122.01 31.56H126.378C126.154 32.44 125.746 33.232 125.154 33.936C124.578 34.64 123.85 35.192 122.97 35.592C122.09 35.992 121.106 36.192 120.018 36.192C118.706 36.192 117.538 35.912 116.514 35.352C115.49 34.792 114.69 33.992 114.114 32.952C113.538 31.912 113.25 30.696 113.25 29.304C113.25 27.912 113.53 26.696 114.09 25.656C114.666 24.616 115.466 23.816 116.49 23.256C117.514 22.696 118.69 22.416 120.018 22.416C121.314 22.416 122.466 22.688 123.474 23.232C124.482 23.776 125.266 24.552 125.826 25.56C126.402 26.568 126.69 27.744 126.69 29.088ZM122.49 28.008C122.49 27.304 122.25 26.744 121.77 26.328C121.29 25.912 120.69 25.704 119.97 25.704C119.282 25.704 118.698 25.904 118.218 26.304C117.754 26.704 117.466 27.272 117.354 28.008H122.49ZM134.303 36.192C133.135 36.192 132.095 35.992 131.183 35.592C130.271 35.192 129.551 34.648 129.023 33.96C128.495 33.256 128.199 32.472 128.135 31.608H132.191C132.239 32.072 132.455 32.448 132.839 32.736C133.223 33.024 133.695 33.168 134.255 33.168C134.767 33.168 135.159 33.072 135.431 32.88C135.719 32.672 135.863 32.408 135.863 32.088C135.863 31.704 135.663 31.424 135.263 31.248C134.863 31.056 134.215 30.848 133.319 30.624C132.359 30.4 131.559 30.168 130.919 29.928C130.279 29.672 129.727 29.28 129.263 28.752C128.799 28.208 128.567 27.48 128.567 26.568C128.567 25.8 128.775 25.104 129.191 24.48C129.623 23.84 130.247 23.336 131.063 22.968C131.895 22.6 132.879 22.416 134.015 22.416C135.695 22.416 137.015 22.832 137.975 23.664C138.951 24.496 139.511 25.6 139.655 26.976H135.863C135.799 26.512 135.591 26.144 135.239 25.872C134.903 25.6 134.455 25.464 133.895 25.464C133.415 25.464 133.047 25.56 132.791 25.752C132.535 25.928 132.407 26.176 132.407 26.496C132.407 26.88 132.607 27.168 133.007 27.36C133.423 27.552 134.063 27.744 134.927 27.936C135.919 28.192 136.727 28.448 137.351 28.704C137.975 28.944 138.519 29.344 138.983 29.904C139.463 30.448 139.711 31.184 139.727 32.112C139.727 32.896 139.503 33.6 139.055 34.224C138.623 34.832 137.991 35.312 137.159 35.664C136.343 36.016 135.391 36.192 134.303 36.192Z" fill="#FFFEFE"/>
</svg>
