<svg width="204" height="54" viewBox="0 0 204 54" fill="none" xmlns="http://www.w3.org/2000/svg">
<path d="M82.0867 29.884C82.0867 27.796 82.5187 25.972 83.3827 24.412C84.2467 22.852 85.4467 21.652 86.9827 20.812C88.5427 19.972 90.3187 19.552 92.3107 19.552C94.8787 19.552 97.0387 20.26 98.7907 21.676C100.543 23.068 101.671 25.024 102.175 27.544H94.6867C94.2547 26.224 93.4147 25.564 92.1667 25.564C91.2787 25.564 90.5707 25.936 90.0427 26.68C89.5387 27.4 89.2867 28.468 89.2867 29.884C89.2867 31.3 89.5387 32.38 90.0427 33.124C90.5707 33.868 91.2787 34.24 92.1667 34.24C93.4387 34.24 94.2787 33.58 94.6867 32.26H102.175C101.671 34.756 100.543 36.712 98.7907 38.128C97.0387 39.544 94.8787 40.252 92.3107 40.252C90.3187 40.252 88.5427 39.832 86.9827 38.992C85.4467 38.152 84.2467 36.952 83.3827 35.392C82.5187 33.832 82.0867 31.996 82.0867 29.884ZM124.402 29.668C124.402 30.22 124.366 30.772 124.294 31.324H110.938C111.01 32.428 111.31 33.256 111.838 33.808C112.39 34.336 113.086 34.6 113.926 34.6C115.102 34.6 115.942 34.072 116.446 33.016H123.97C123.658 34.408 123.046 35.656 122.134 36.76C121.246 37.84 120.118 38.692 118.75 39.316C117.382 39.94 115.87 40.252 114.214 40.252C112.222 40.252 110.446 39.832 108.886 38.992C107.35 38.152 106.138 36.952 105.25 35.392C104.386 33.832 103.954 31.996 103.954 29.884C103.954 27.772 104.386 25.948 105.25 24.412C106.114 22.852 107.314 21.652 108.85 20.812C110.41 19.972 112.198 19.552 114.214 19.552C116.206 19.552 117.97 19.96 119.506 20.776C121.042 21.592 122.242 22.768 123.106 24.304C123.97 25.816 124.402 27.604 124.402 29.668ZM117.202 27.904C117.202 27.04 116.914 26.368 116.338 25.888C115.762 25.384 115.042 25.132 114.178 25.132C113.314 25.132 112.606 25.372 112.054 25.852C111.502 26.308 111.142 26.992 110.974 27.904H117.202ZM157.133 19.804L151.985 40H144.065L141.257 27.76L138.341 40H130.457L125.345 19.804H132.365L134.633 33.196L137.621 19.804H145.181L148.277 33.232L150.509 19.804H157.133ZM178.437 29.668C178.437 30.22 178.401 30.772 178.329 31.324H164.973C165.045 32.428 165.345 33.256 165.873 33.808C166.425 34.336 167.121 34.6 167.961 34.6C169.137 34.6 169.977 34.072 170.481 33.016H178.005C177.693 34.408 177.081 35.656 176.169 36.76C175.281 37.84 174.153 38.692 172.785 39.316C171.417 39.94 169.905 40.252 168.249 40.252C166.257 40.252 164.481 39.832 162.921 38.992C161.385 38.152 160.173 36.952 159.285 35.392C158.421 33.832 157.989 31.996 157.989 29.884C157.989 27.772 158.421 25.948 159.285 24.412C160.149 22.852 161.349 21.652 162.885 20.812C164.445 19.972 166.233 19.552 168.249 19.552C170.241 19.552 172.005 19.96 173.541 20.776C175.077 21.592 176.277 22.768 177.141 24.304C178.005 25.816 178.437 27.604 178.437 29.668ZM171.237 27.904C171.237 27.04 170.949 26.368 170.373 25.888C169.797 25.384 169.077 25.132 168.213 25.132C167.349 25.132 166.641 25.372 166.089 25.852C165.537 26.308 165.177 26.992 165.009 27.904H171.237ZM188.381 22.612C188.933 21.652 189.713 20.908 190.721 20.38C191.729 19.828 192.917 19.552 194.285 19.552C195.893 19.552 197.345 19.972 198.641 20.812C199.961 21.652 200.993 22.852 201.737 24.412C202.505 25.972 202.889 27.796 202.889 29.884C202.889 31.972 202.505 33.808 201.737 35.392C200.993 36.952 199.961 38.152 198.641 38.992C197.345 39.832 195.893 40.252 194.285 40.252C192.917 40.252 191.729 39.988 190.721 39.46C189.713 38.908 188.933 38.152 188.381 37.192V40H181.325V13.36H188.381V22.612ZM195.725 29.884C195.725 28.564 195.365 27.544 194.645 26.824C193.949 26.08 193.085 25.708 192.053 25.708C191.021 25.708 190.145 26.08 189.425 26.824C188.729 27.568 188.381 28.588 188.381 29.884C188.381 31.204 188.729 32.236 189.425 32.98C190.145 33.724 191.021 34.096 192.053 34.096C193.085 34.096 193.949 33.724 194.645 32.98C195.365 32.212 195.725 31.18 195.725 29.884Z" fill="#8D13A5"/>
<path d="M12.0046 39.21C10.0246 39.21 8.20457 38.75 6.54457 37.83C4.88457 36.89 3.56457 35.6 2.58457 33.96C1.62457 32.3 1.14457 30.43 1.14457 28.35C1.14457 26.27 1.62457 24.41 2.58457 22.77C3.56457 21.11 4.88457 19.82 6.54457 18.9C8.20457 17.98 10.0246 17.52 12.0046 17.52C14.0046 17.52 15.8246 17.98 17.4646 18.9C19.1246 19.82 20.4346 21.11 21.3946 22.77C22.3546 24.41 22.8346 26.27 22.8346 28.35C22.8346 30.43 22.3546 32.3 21.3946 33.96C20.4346 35.6 19.1246 36.89 17.4646 37.83C15.8046 38.75 13.9846 39.21 12.0046 39.21ZM12.0046 33.75C13.5046 33.75 14.6846 33.26 15.5446 32.28C16.4246 31.3 16.8646 29.99 16.8646 28.35C16.8646 26.67 16.4246 25.35 15.5446 24.39C14.6846 23.41 13.5046 22.92 12.0046 22.92C10.4846 22.92 9.29457 23.41 8.43457 24.39C7.57457 25.35 7.14457 26.67 7.14457 28.35C7.14457 30.01 7.57457 31.33 8.43457 32.31C9.29457 33.27 10.4846 33.75 12.0046 33.75ZM31.3579 24.51C31.8179 23.73 32.4679 23.11 33.3079 22.65C34.1479 22.19 35.1379 21.96 36.2779 21.96C37.6179 21.96 38.8279 22.31 39.9079 23.01C41.0079 23.71 41.8679 24.71 42.4879 26.01C43.1279 27.31 43.4479 28.83 43.4479 30.57C43.4479 32.31 43.1279 33.84 42.4879 35.16C41.8679 36.46 41.0079 37.46 39.9079 38.16C38.8279 38.86 37.6179 39.21 36.2779 39.21C35.1379 39.21 34.1479 38.98 33.3079 38.52C32.4879 38.06 31.8379 37.44 31.3579 36.66V47.04H25.4779V22.17H31.3579V24.51ZM37.4779 30.57C37.4779 29.47 37.1779 28.62 36.5779 28.02C35.9979 27.4 35.2779 27.09 34.4179 27.09C33.5579 27.09 32.8279 27.4 32.2279 28.02C31.6479 28.64 31.3579 29.49 31.3579 30.57C31.3579 31.67 31.6479 32.53 32.2279 33.15C32.8279 33.77 33.5579 34.08 34.4179 34.08C35.2779 34.08 35.9979 33.77 36.5779 33.15C37.1779 32.51 37.4779 31.65 37.4779 30.57ZM55.7985 33.99V39H53.2485C48.9485 39 46.7985 36.87 46.7985 32.61V27.06H44.7285V22.17H46.7985V18.09H52.7085V22.17H55.7685V27.06H52.7085V32.7C52.7085 33.16 52.8085 33.49 53.0085 33.69C53.2285 33.89 53.5885 33.99 54.0885 33.99H55.7985Z" fill="#8D13A5"/>
<path d="M80.9307 14.4277C80.7576 8.29952 75.234 3.48487 68.5906 3.67101C61.9503 3.85707 56.7045 8.97385 56.8775 15.0992C56.952 17.7701 58.4391 20.0831 60.0503 22.2401C61.7424 24.5044 62.9106 26.6962 64.2073 29.1384C64.9677 30.5742 66.9507 31.0892 68.6715 31.1528C70.3547 31.2116 72.4834 30.9789 73.8606 29.881C76.0183 28.1625 75.9835 24.986 77.373 22.8297C79.0749 20.195 81.0195 17.6345 80.9307 14.4277V14.4277Z" fill="#90CAF9"/>
<path d="M72.843 37.9322C73.0238 37.7929 73.1727 37.6326 73.2729 37.4049C73.3934 37.1203 73.3426 36.8559 73.3034 36.56C73.2717 36.3076 73.2938 36.1976 73.4609 36.0181C73.6493 35.8161 73.8414 35.6328 73.868 35.3414C73.8872 35.1251 73.8348 34.9202 73.7887 34.7151C73.7648 34.6407 73.7503 34.563 73.7482 34.4849C73.7875 34.3181 73.9937 34.197 74.1063 34.0814C74.3984 33.7829 74.6657 33.3725 74.7422 32.9609C74.7916 32.7032 74.7692 32.335 74.601 32.1238C74.352 31.8115 74.0337 31.9482 73.7312 32.0938C73.6324 32.1403 73.5464 32.1988 73.4477 32.2483C71.573 33.2206 69.3363 33.2804 67.3078 32.825C66.7921 32.7106 66.2756 32.5681 65.7916 32.356C65.4089 32.1911 64.8695 32.0086 64.6227 32.4841C64.4146 32.8836 64.5411 33.4054 64.711 33.7979C64.8109 34.0265 65.0193 34.221 65.1927 34.3946C65.3597 34.5621 65.4339 34.6476 65.3929 34.8675C65.3545 35.0686 65.3903 35.2365 65.4144 35.439C65.4499 35.7132 65.4944 35.9746 65.6784 36.1916C65.8559 36.4026 66.1165 36.5613 66.2757 36.7853C66.4153 36.9785 66.4192 37.2441 66.5033 37.4638C66.6442 37.8227 66.9699 38.1985 67.2944 38.4086C67.6634 38.6457 68.1503 38.6171 68.4745 38.9336C68.9015 39.3536 69.5034 39.6501 70.1146 39.5962C70.8632 39.5325 71.2507 38.9407 71.8118 38.5318C72.0295 38.3728 72.3058 38.2998 72.5362 38.1498C72.6405 38.0751 72.745 38.0067 72.843 37.9322Z" fill="#8D13A5"/>
</svg>
