<svg width="118" height="50" viewBox="0 0 118 50" fill="none" xmlns="http://www.w3.org/2000/svg">
<path d="M29.19 36L22.56 26.73V36H16.68V14.85H22.56V23.97L29.13 14.85H35.91L28.14 25.11L36.3 36H29.19ZM37.6376 27.57C37.6376 25.83 37.9476 24.31 38.5676 23.01C39.2076 21.71 40.0676 20.71 41.1476 20.01C42.2476 19.31 43.4676 18.96 44.8076 18.96C45.9676 18.96 46.9676 19.19 47.8076 19.65C48.6476 20.11 49.2976 20.73 49.7576 21.51V19.17H55.6376V36H49.7576V33.66C49.2976 34.44 48.6376 35.06 47.7776 35.52C46.9376 35.98 45.9476 36.21 44.8076 36.21C43.4676 36.21 42.2476 35.86 41.1476 35.16C40.0676 34.46 39.2076 33.46 38.5676 32.16C37.9476 30.84 37.6376 29.31 37.6376 27.57ZM49.7576 27.57C49.7576 26.49 49.4576 25.64 48.8576 25.02C48.2776 24.4 47.5576 24.09 46.6976 24.09C45.8176 24.09 45.0876 24.4 44.5076 25.02C43.9276 25.62 43.6376 26.47 43.6376 27.57C43.6376 28.65 43.9276 29.51 44.5076 30.15C45.0876 30.77 45.8176 31.08 46.6976 31.08C47.5576 31.08 48.2776 30.77 48.8576 30.15C49.4576 29.53 49.7576 28.67 49.7576 27.57ZM70.1482 19.02C72.0882 19.02 73.6282 19.67 74.7682 20.97C75.9082 22.25 76.4782 23.99 76.4782 26.19V36H70.5982V26.97C70.5982 26.01 70.3482 25.26 69.8482 24.72C69.3482 24.16 68.6782 23.88 67.8382 23.88C66.9582 23.88 66.2682 24.16 65.7682 24.72C65.2682 25.26 65.0182 26.01 65.0182 26.97V36H59.1382V19.17H65.0182V21.57C65.5382 20.81 66.2382 20.2 67.1182 19.74C67.9982 19.26 69.0082 19.02 70.1482 19.02ZM78.8946 27.57C78.8946 25.83 79.2046 24.31 79.8246 23.01C80.4646 21.71 81.3246 20.71 82.4046 20.01C83.5046 19.31 84.7246 18.96 86.0646 18.96C87.2246 18.96 88.2246 19.19 89.0646 19.65C89.9046 20.11 90.5546 20.73 91.0146 21.51V19.17H96.8946V36H91.0146V33.66C90.5546 34.44 89.8946 35.06 89.0346 35.52C88.1946 35.98 87.2046 36.21 86.0646 36.21C84.7246 36.21 83.5046 35.86 82.4046 35.16C81.3246 34.46 80.4646 33.46 79.8246 32.16C79.2046 30.84 78.8946 29.31 78.8946 27.57ZM91.0146 27.57C91.0146 26.49 90.7146 25.64 90.1146 25.02C89.5346 24.4 88.8146 24.09 87.9546 24.09C87.0746 24.09 86.3446 24.4 85.7646 25.02C85.1846 25.62 84.8946 26.47 84.8946 27.57C84.8946 28.65 85.1846 29.51 85.7646 30.15C86.3446 30.77 87.0746 31.08 87.9546 31.08C88.8146 31.08 89.5346 30.77 90.1146 30.15C90.7146 29.53 91.0146 28.67 91.0146 27.57ZM103.365 17.61C102.325 17.61 101.485 17.33 100.845 16.77C100.225 16.19 99.9152 15.47 99.9152 14.61C99.9152 13.73 100.225 13 100.845 12.42C101.485 11.84 102.325 11.55 103.365 11.55C104.385 11.55 105.205 11.84 105.825 12.42C106.465 13 106.785 13.73 106.785 14.61C106.785 15.47 106.465 16.19 105.825 16.77C105.205 17.33 104.385 17.61 103.365 17.61ZM106.275 19.17V36H100.395V19.17H106.275ZM112.624 36.24C111.584 36.24 110.744 35.96 110.104 35.4C109.484 34.82 109.174 34.09 109.174 33.21C109.174 32.33 109.484 31.6 110.104 31.02C110.744 30.44 111.584 30.15 112.624 30.15C113.644 30.15 114.464 30.44 115.084 31.02C115.724 31.6 116.044 32.33 116.044 33.21C116.044 34.07 115.724 34.79 115.084 35.37C114.464 35.95 113.644 36.24 112.624 36.24Z" fill="white"/>
<path d="M42.6777 7.32233C39.1814 3.82602 34.7268 1.445 29.8773 0.480367C25.0277 -0.484263 20.0011 0.0108216 15.4329 1.90301C10.8648 3.7952 6.96029 6.99952 4.21326 11.1107C1.46622 15.222 -7.46603e-07 20.0555 0 25C7.46604e-07 29.9445 1.46623 34.778 4.21326 38.8893C6.9603 43.0005 10.8648 46.2048 15.4329 48.097C20.0011 49.9892 25.0277 50.4843 29.8773 49.5196C34.7268 48.555 39.1814 46.174 42.6777 42.6777L37.9104 37.9104C35.357 40.4638 32.1037 42.2027 28.562 42.9072C25.0203 43.6117 21.3492 43.2501 18.013 41.8682C14.6767 40.4863 11.8252 38.1461 9.81899 35.1436C7.81277 32.1411 6.74195 28.6111 6.74195 25C6.74195 21.3889 7.81277 17.8589 9.81899 14.8564C11.8252 11.8539 14.6767 9.51367 18.0129 8.13177C21.3492 6.74986 25.0203 6.38829 28.562 7.09278C32.1037 7.79727 35.357 9.53618 37.9104 12.0896L42.6777 7.32233Z" fill="white"/>
</svg>
