<svg width="203" height="54" viewBox="0 0 203 54" fill="none" xmlns="http://www.w3.org/2000/svg">
<path d="M82.1174 29.956C82.1174 27.868 82.5374 26.044 83.3774 24.484C84.2414 22.924 85.4294 21.724 86.9414 20.884C88.4774 20.044 90.2294 19.624 92.1974 19.624C94.7174 19.624 96.8174 20.284 98.4974 21.604C100.201 22.924 101.317 24.784 101.845 27.184H95.2934C94.7414 25.648 93.6734 24.88 92.0894 24.88C90.9614 24.88 90.0614 25.324 89.3894 26.212C88.7174 27.076 88.3814 28.324 88.3814 29.956C88.3814 31.588 88.7174 32.848 89.3894 33.736C90.0614 34.6 90.9614 35.032 92.0894 35.032C93.6734 35.032 94.7414 34.264 95.2934 32.728H101.845C101.317 35.08 100.201 36.928 98.4974 38.272C96.7934 39.616 94.6934 40.288 92.1974 40.288C90.2294 40.288 88.4774 39.868 86.9414 39.028C85.4294 38.188 84.2414 36.988 83.3774 35.428C82.5374 33.868 82.1174 32.044 82.1174 29.956ZM124.074 29.632C124.074 30.208 124.038 30.808 123.966 31.432H110.034C110.13 32.68 110.526 33.64 111.222 34.312C111.942 34.96 112.818 35.284 113.85 35.284C115.386 35.284 116.454 34.636 117.054 33.34H123.606C123.27 34.66 122.658 35.848 121.77 36.904C120.906 37.96 119.814 38.788 118.494 39.388C117.174 39.988 115.698 40.288 114.066 40.288C112.098 40.288 110.346 39.868 108.81 39.028C107.274 38.188 106.074 36.988 105.21 35.428C104.346 33.868 103.914 32.044 103.914 29.956C103.914 27.868 104.334 26.044 105.174 24.484C106.038 22.924 107.238 21.724 108.774 20.884C110.31 20.044 112.074 19.624 114.066 19.624C116.01 19.624 117.738 20.032 119.25 20.848C120.762 21.664 121.938 22.828 122.778 24.34C123.642 25.852 124.074 27.616 124.074 29.632ZM117.774 28.012C117.774 26.956 117.414 26.116 116.694 25.492C115.974 24.868 115.074 24.556 113.994 24.556C112.962 24.556 112.086 24.856 111.366 25.456C110.67 26.056 110.238 26.908 110.07 28.012H117.774ZM156.158 19.912L150.722 40H143.918L140.75 26.968L137.474 40H130.706L125.234 19.912H131.39L134.234 34.276L137.618 19.912H144.134L147.554 34.204L150.362 19.912H156.158ZM177.441 29.632C177.441 30.208 177.405 30.808 177.333 31.432H163.401C163.497 32.68 163.893 33.64 164.589 34.312C165.309 34.96 166.185 35.284 167.217 35.284C168.753 35.284 169.821 34.636 170.421 33.34H176.973C176.637 34.66 176.025 35.848 175.137 36.904C174.273 37.96 173.181 38.788 171.861 39.388C170.541 39.988 169.065 40.288 167.433 40.288C165.465 40.288 163.713 39.868 162.177 39.028C160.641 38.188 159.441 36.988 158.577 35.428C157.713 33.868 157.281 32.044 157.281 29.956C157.281 27.868 157.701 26.044 158.541 24.484C159.405 22.924 160.605 21.724 162.141 20.884C163.677 20.044 165.441 19.624 167.433 19.624C169.377 19.624 171.105 20.032 172.617 20.848C174.129 21.664 175.305 22.828 176.145 24.34C177.009 25.852 177.441 27.616 177.441 29.632ZM171.141 28.012C171.141 26.956 170.781 26.116 170.061 25.492C169.341 24.868 168.441 24.556 167.361 24.556C166.329 24.556 165.453 24.856 164.733 25.456C164.037 26.056 163.605 26.908 163.437 28.012H171.141ZM186.845 22.756C187.421 21.82 188.249 21.064 189.329 20.488C190.409 19.912 191.645 19.624 193.037 19.624C194.693 19.624 196.193 20.044 197.537 20.884C198.881 21.724 199.937 22.924 200.705 24.484C201.497 26.044 201.893 27.856 201.893 29.92C201.893 31.984 201.497 33.808 200.705 35.392C199.937 36.952 198.881 38.164 197.537 39.028C196.193 39.868 194.693 40.288 193.037 40.288C191.621 40.288 190.385 40.012 189.329 39.46C188.273 38.884 187.445 38.128 186.845 37.192V40H180.689V13.36H186.845V22.756ZM195.629 29.92C195.629 28.384 195.197 27.184 194.333 26.32C193.493 25.432 192.449 24.988 191.201 24.988C189.977 24.988 188.933 25.432 188.069 26.32C187.229 27.208 186.809 28.42 186.809 29.956C186.809 31.492 187.229 32.704 188.069 33.592C188.933 34.48 189.977 34.924 191.201 34.924C192.425 34.924 193.469 34.48 194.333 33.592C195.197 32.68 195.629 31.456 195.629 29.92Z" fill="white"/>
<path d="M12.2536 39.21C10.2736 39.21 8.45359 38.75 6.79359 37.83C5.15359 36.91 3.84359 35.63 2.86359 33.99C1.90359 32.33 1.42359 30.47 1.42359 28.41C1.42359 26.35 1.90359 24.5 2.86359 22.86C3.84359 21.22 5.15359 19.94 6.79359 19.02C8.45359 18.1 10.2736 17.64 12.2536 17.64C14.2336 17.64 16.0436 18.1 17.6836 19.02C19.3436 19.94 20.6436 21.22 21.5836 22.86C22.5436 24.5 23.0236 26.35 23.0236 28.41C23.0236 30.47 22.5436 32.33 21.5836 33.99C20.6236 35.63 19.3236 36.91 17.6836 37.83C16.0436 38.75 14.2336 39.21 12.2536 39.21ZM12.2536 34.53C13.9336 34.53 15.2736 33.97 16.2736 32.85C17.2936 31.73 17.8036 30.25 17.8036 28.41C17.8036 26.55 17.2936 25.07 16.2736 23.97C15.2736 22.85 13.9336 22.29 12.2536 22.29C10.5536 22.29 9.19359 22.84 8.17359 23.94C7.17359 25.04 6.67359 26.53 6.67359 28.41C6.67359 30.27 7.17359 31.76 8.17359 32.88C9.19359 33.98 10.5536 34.53 12.2536 34.53ZM31.0076 24.63C31.5076 23.85 32.1976 23.22 33.0776 22.74C33.9576 22.26 34.9876 22.02 36.1676 22.02C37.5476 22.02 38.7976 22.37 39.9176 23.07C41.0376 23.77 41.9176 24.77 42.5576 26.07C43.2176 27.37 43.5476 28.88 43.5476 30.6C43.5476 32.32 43.2176 33.84 42.5576 35.16C41.9176 36.46 41.0376 37.47 39.9176 38.19C38.7976 38.89 37.5476 39.24 36.1676 39.24C35.0076 39.24 33.9776 39 33.0776 38.52C32.1976 38.04 31.5076 37.42 31.0076 36.66V46.98H25.8776V22.26H31.0076V24.63ZM38.3276 30.6C38.3276 29.32 37.9676 28.32 37.2476 27.6C36.5476 26.86 35.6776 26.49 34.6376 26.49C33.6176 26.49 32.7476 26.86 32.0276 27.6C31.3276 28.34 30.9776 29.35 30.9776 30.63C30.9776 31.91 31.3276 32.92 32.0276 33.66C32.7476 34.4 33.6176 34.77 34.6376 34.77C35.6576 34.77 36.5276 34.4 37.2476 33.66C37.9676 32.9 38.3276 31.88 38.3276 30.6ZM55.5689 34.65V39H52.9589C51.0989 39 49.6489 38.55 48.6089 37.65C47.5689 36.73 47.0489 35.24 47.0489 33.18V26.52H45.0089V22.26H47.0489V18.18H52.1789V22.26H55.5389V26.52H52.1789V33.24C52.1789 33.74 52.2989 34.1 52.5389 34.32C52.7789 34.54 53.1789 34.65 53.7389 34.65H55.5689Z" fill="white"/>
<path d="M80.9307 14.4278C80.7576 8.29953 75.234 3.48489 68.5906 3.67103C61.9503 3.85709 56.7045 8.97387 56.8775 15.0992C56.952 17.7701 58.4391 20.0831 60.0503 22.2401C61.7424 24.5044 62.9106 26.6963 64.2073 29.1384C64.9677 30.5742 66.9507 31.0892 68.6715 31.1528C70.3547 31.2116 72.4834 30.9789 73.8606 29.881C76.0183 28.1626 75.9835 24.9861 77.373 22.8297C79.0749 20.195 81.0195 17.6345 80.9307 14.4278Z" fill="#90CAF9"/>
<path d="M72.843 37.9322C73.0238 37.7929 73.1727 37.6326 73.2729 37.4049C73.3934 37.1203 73.3426 36.8559 73.3034 36.56C73.2717 36.3076 73.2938 36.1976 73.4609 36.0181C73.6493 35.8161 73.8414 35.6328 73.868 35.3414C73.8872 35.1251 73.8348 34.9202 73.7887 34.7151C73.7648 34.6407 73.7503 34.563 73.7482 34.4849C73.7875 34.3181 73.9937 34.197 74.1063 34.0814C74.3984 33.7829 74.6657 33.3725 74.7422 32.9609C74.7916 32.7032 74.7692 32.335 74.601 32.1238C74.352 31.8115 74.0337 31.9482 73.7312 32.0938C73.6324 32.1403 73.5464 32.1988 73.4477 32.2483C71.573 33.2206 69.3363 33.2804 67.3078 32.825C66.7921 32.7106 66.2756 32.5681 65.7916 32.356C65.4089 32.1911 64.8695 32.0086 64.6227 32.4841C64.4146 32.8836 64.5411 33.4054 64.711 33.7979C64.8109 34.0265 65.0193 34.221 65.1927 34.3946C65.3597 34.5621 65.4339 34.6476 65.3929 34.8675C65.3545 35.0686 65.3903 35.2365 65.4144 35.439C65.4499 35.7132 65.4944 35.9746 65.6784 36.1916C65.8559 36.4026 66.1165 36.5613 66.2757 36.7853C66.4153 36.9785 66.4192 37.2441 66.5033 37.4638C66.6442 37.8227 66.9699 38.1985 67.2944 38.4086C67.6634 38.6457 68.1503 38.6171 68.4745 38.9336C68.9015 39.3536 69.5034 39.6501 70.1146 39.5962C70.8632 39.5325 71.2507 38.9407 71.8118 38.5318C72.0295 38.3728 72.3058 38.2998 72.5362 38.1498C72.6405 38.0751 72.745 38.0067 72.843 37.9322Z" fill="white"/>
</svg>
