<svg width="50" height="50" viewBox="0 0 50 50" fill="none" xmlns="http://www.w3.org/2000/svg">
<path d="M4.16663 12.4895C4.16663 11.3437 5.09579 10.4166 6.23954 10.4166H22.927C23.4768 10.4166 24.0041 10.635 24.3928 11.0238C24.7816 11.4125 25 11.9398 25 12.4895C25 13.0393 24.7816 13.5666 24.3928 13.9553C24.0041 14.3441 23.4768 14.5625 22.927 14.5625H6.23954C5.68977 14.5625 5.16252 14.3441 4.77377 13.9553C4.38502 13.5666 4.16663 13.0393 4.16663 12.4895V12.4895Z" fill="white"/>
<path d="M4.16663 24.9999C4.16663 23.8541 5.09579 22.927 6.23954 22.927H43.7604C44.3101 22.927 44.8374 23.1454 45.2262 23.5341C45.6149 23.9229 45.8333 24.4501 45.8333 24.9999C45.8333 25.5497 45.6149 26.0769 45.2262 26.4657C44.8374 26.8544 44.3101 27.0728 43.7604 27.0728H6.23954C5.68977 27.0728 5.16252 26.8544 4.77377 26.4657C4.38502 26.0769 4.16663 25.5497 4.16663 24.9999V24.9999Z" fill="white"/>
<path d="M6.23954 35.4375C5.68977 35.4375 5.16252 35.6559 4.77377 36.0446C4.38502 36.4334 4.16663 36.9606 4.16663 37.5104C4.16663 38.0602 4.38502 38.5874 4.77377 38.9762C5.16252 39.3649 5.68977 39.5833 6.23954 39.5833H31.2604C31.8102 39.5833 32.3374 39.3649 32.7262 38.9762C33.1149 38.5874 33.3333 38.0602 33.3333 37.5104C33.3333 36.9606 33.1149 36.4334 32.7262 36.0446C32.3374 35.6559 31.8102 35.4375 31.2604 35.4375H6.23954Z" fill="white"/>
</svg>
