<svg width="332" height="340" viewBox="0 0 332 340" fill="none" xmlns="http://www.w3.org/2000/svg">
<g clip-path="url(#clip0)">
<path d="M246.214 170.703C262.941 136.228 246.6 92.8288 209.708 73.7427C172.834 54.6655 129.371 67.1276 112.652 101.586C105.357 116.608 106.824 133.926 109.42 150.754C112.149 168.423 112.221 184.103 112.274 201.559C112.294 211.816 121.66 220.674 130.894 226.237C139.935 231.66 152.255 236.817 162.958 234.905C179.721 231.919 188.692 214.215 202.515 206.477C219.426 197.034 237.452 188.738 246.214 170.703V170.703Z" fill="#F2A516" fill-opacity="0.5"/>
<path d="M134.17 276.427C135.56 276.203 136.837 275.766 138.042 274.808C139.523 273.596 140.007 271.978 140.646 270.22C141.2 268.725 141.638 268.183 143.071 267.694C144.685 267.146 146.264 266.712 147.25 265.178C147.979 264.038 148.283 262.744 148.623 261.469C148.706 260.984 148.851 260.509 149.065 260.07C149.761 259.266 151.239 259.219 152.188 258.919C154.648 258.15 157.294 256.686 158.9 254.637C159.913 253.36 160.853 251.252 160.541 249.572C160.079 247.088 157.943 246.882 155.868 246.772C155.193 246.73 154.554 246.794 153.871 246.77C140.808 246.48 128.396 240.037 118.608 231.372C116.116 229.177 113.7 226.823 111.664 224.182C110.045 222.11 107.62 219.466 104.898 221.353C102.607 222.935 101.794 226.209 101.592 228.898C101.479 230.467 102.059 232.176 102.507 233.663C102.938 235.096 103.098 235.795 102.239 236.889C101.449 237.887 101.16 238.925 100.708 240.12C100.112 241.746 99.6014 243.329 99.9823 245.089C100.346 246.795 101.314 248.464 101.539 250.186C101.746 251.68 101.001 253.163 100.827 254.635C100.563 257.049 101.262 260.118 102.432 262.265C103.767 264.696 106.514 266.011 107.376 268.746C108.501 272.366 110.939 275.832 114.44 277.384C118.72 279.298 122.547 277.192 126.797 276.627C128.447 276.405 130.17 276.837 131.863 276.704C132.649 276.606 133.418 276.543 134.17 276.427Z" fill="#57A5D5" fill-opacity="0.5"/>
</g>
<defs>
<clipPath id="clip0">
<rect width="250" height="250" fill="white" transform="matrix(0.887576 0.460661 -0.437892 0.899027 110.009 0)"/>
</clipPath>
</defs>
</svg>
