<svg width="50" height="50" viewBox="0 0 50 50" fill="none" xmlns="http://www.w3.org/2000/svg">
<path d="M49.5054 47.1707L47.2127 49.5122C46.8875 49.8049 46.4972 49.9512 46.042 49.9512C45.5867 49.9512 45.1964 49.8049 44.8712 49.5122L37.5054 42.0976C35.5542 43.2033 33.4729 43.7561 31.2615 43.7561C27.8143 43.7561 24.8712 42.5366 22.4322 40.0976C19.9932 37.6585 18.7737 34.7154 18.7737 31.2683C18.7737 27.8211 19.9932 24.878 22.4322 22.439C24.8712 20 27.8143 18.7805 31.2615 18.7805C34.7086 18.7805 37.6517 20 40.0907 22.439C42.5298 24.878 43.7493 27.8211 43.7493 31.2683C43.7493 33.4797 43.1964 35.5447 42.0907 37.4634L49.5054 44.878C49.8306 45.2033 49.9932 45.5854 49.9932 46.0244C49.9932 46.4634 49.8306 46.8455 49.5054 47.1707V47.1707ZM31.2859 21.9024C28.7005 21.9024 26.4891 22.813 24.6517 24.6341C22.8143 26.4553 21.8956 28.6585 21.8956 31.2439C21.8956 33.8293 22.8143 36.0406 24.6517 37.878C26.4891 39.7154 28.7005 40.6341 31.2859 40.6341C33.8712 40.6341 36.0745 39.7154 37.8956 37.878C39.7168 36.0406 40.6273 33.8293 40.6273 31.2439C40.6273 28.6585 39.7168 26.4553 37.8956 24.6341C36.0745 22.813 33.8712 21.9024 31.2859 21.9024ZM34.3834 15.9512V15.6585C34.3834 14.7805 34.6924 14.0406 35.3103 13.439C35.9281 12.8374 36.6598 12.5366 37.5054 12.5366H43.7493C44.6273 12.5366 45.3753 12.8374 45.9932 13.439C46.6111 14.0406 46.92 14.7805 46.92 15.6585V31.2683H46.8712C46.8712 27.5285 45.6924 24.2195 43.3346 21.3415C40.9769 18.4634 37.9932 16.6667 34.3834 15.9512ZM18.7737 21.9024V9.41463C18.7737 8.53659 19.0826 7.79675 19.7005 7.19512C20.3184 6.5935 21.0501 6.29268 21.8956 6.29268H28.1395C29.0176 6.29268 29.7574 6.5935 30.359 7.19512C30.9607 7.79675 31.2615 8.53659 31.2615 9.41463V15.6585C28.7574 15.6585 26.4159 16.2195 24.2371 17.3415C22.0582 18.4634 20.2371 19.9837 18.7737 21.9024ZM18.7737 40.5854C20.2371 42.5366 22.0582 44.0732 24.2371 45.1951C26.4159 46.3171 28.7574 46.878 31.2615 46.878H34.3834C34.3834 47.7236 34.0826 48.4553 33.481 49.0732C32.8794 49.6911 32.1395 50 31.2615 50H3.16391C2.31838 50 1.58668 49.6911 0.968791 49.0732C0.350905 48.4553 0.0419617 47.7154 0.0419617 46.8537C0.0419617 45.9919 0.342775 45.2602 0.944401 44.6585C1.54603 44.0569 2.28586 43.7561 3.16391 43.7561V3.12195C3.16391 2.27642 3.47286 1.54472 4.09074 0.926829C4.70863 0.308943 5.44034 0 6.28586 0H12.5298C13.4078 0 14.1477 0.308943 14.7493 0.926829C15.3509 1.54472 15.6517 2.27642 15.6517 3.12195V43.7561H18.7737V40.5854Z" fill="#FA00EF" fill-opacity="0.9"/>
</svg>
