<svg width="90" height="83" viewBox="0 0 90 83" fill="none" xmlns="http://www.w3.org/2000/svg">
<ellipse cx="45" cy="41.5" rx="45" ry="41.5" fill="#57A5D5"/>
<path d="M69.4634 64.1707L67.1707 66.5122C66.8455 66.8049 66.4553 66.9512 66 66.9512C65.5447 66.9512 65.1545 66.8049 64.8293 66.5122L57.4634 59.0976C55.5122 60.2033 53.4309 60.7561 51.2195 60.7561C47.7724 60.7561 44.8293 59.5366 42.3902 57.0976C39.9512 54.6585 38.7317 51.7154 38.7317 48.2683C38.7317 44.8211 39.9512 41.878 42.3902 39.439C44.8293 37 47.7724 35.7805 51.2195 35.7805C54.6667 35.7805 57.6098 37 60.0488 39.439C62.4878 41.878 63.7073 44.8211 63.7073 48.2683C63.7073 50.4797 63.1545 52.5447 62.0488 54.4634L69.4634 61.878C69.7886 62.2033 69.9512 62.5854 69.9512 63.0244C69.9512 63.4634 69.7886 63.8455 69.4634 64.1707V64.1707ZM51.2439 38.9024C48.6585 38.9024 46.4472 39.813 44.6098 41.6341C42.7724 43.4553 41.8537 45.6585 41.8537 48.2439C41.8537 50.8293 42.7724 53.0406 44.6098 54.878C46.4472 56.7154 48.6585 57.6341 51.2439 57.6341C53.8293 57.6341 56.0325 56.7154 57.8537 54.878C59.6748 53.0406 60.5854 50.8293 60.5854 48.2439C60.5854 45.6585 59.6748 43.4553 57.8537 41.6341C56.0325 39.813 53.8293 38.9024 51.2439 38.9024ZM54.3415 32.9512V32.6585C54.3415 31.7805 54.6504 31.0406 55.2683 30.439C55.8862 29.8374 56.6179 29.5366 57.4634 29.5366H63.7073C64.5854 29.5366 65.3333 29.8374 65.9512 30.439C66.5691 31.0406 66.878 31.7805 66.878 32.6585V48.2683H66.8293C66.8293 44.5285 65.6504 41.2195 63.2927 38.3415C60.935 35.4634 57.9512 33.6667 54.3415 32.9512ZM38.7317 38.9024V26.4146C38.7317 25.5366 39.0406 24.7967 39.6585 24.1951C40.2764 23.5935 41.0081 23.2927 41.8537 23.2927H48.0976C48.9756 23.2927 49.7154 23.5935 50.3171 24.1951C50.9187 24.7967 51.2195 25.5366 51.2195 26.4146V32.6585C48.7154 32.6585 46.374 33.2195 44.1951 34.3415C42.0163 35.4634 40.1951 36.9837 38.7317 38.9024ZM38.7317 57.5854C40.1951 59.5366 42.0163 61.0732 44.1951 62.1951C46.374 63.3171 48.7154 63.878 51.2195 63.878H54.3415C54.3415 64.7236 54.0406 65.4553 53.439 66.0732C52.8374 66.6911 52.0976 67 51.2195 67H23.122C22.2764 67 21.5447 66.6911 20.9268 66.0732C20.3089 65.4553 20 64.7154 20 63.8537C20 62.9919 20.3008 62.2602 20.9024 61.6585C21.5041 61.0569 22.2439 60.7561 23.122 60.7561V20.122C23.122 19.2764 23.4309 18.5447 24.0488 17.9268C24.6667 17.3089 25.3984 17 26.2439 17H32.4878C33.3659 17 34.1057 17.3089 34.7073 17.9268C35.3089 18.5447 35.6098 19.2764 35.6098 20.122V60.7561H38.7317V57.5854Z" fill="white"/>
</svg>
