<svg width="514" height="293" viewBox="0 0 514 293" fill="none" xmlns="http://www.w3.org/2000/svg">
<g clip-path="url(#clip0)">
<path d="M510.645 241.447H256.351C255.462 241.447 254.609 241.148 253.98 240.618C253.351 240.088 252.998 239.37 252.997 238.62V2.82725C252.998 2.07768 253.351 1.35906 253.98 0.82903C254.609 0.299003 255.462 0.000857535 256.351 0H510.645C511.535 0.000857535 512.387 0.299003 513.016 0.82903C513.645 1.35906 513.999 2.07768 514 2.82725V238.62C513.999 239.37 513.645 240.088 513.016 240.618C512.387 241.148 511.535 241.447 510.645 241.447V241.447ZM256.351 1.1309C255.818 1.13139 255.306 1.31027 254.929 1.62829C254.551 1.94632 254.339 2.3775 254.339 2.82725V238.62C254.339 239.07 254.551 239.501 254.929 239.819C255.306 240.137 255.818 240.316 256.351 240.317H510.645C511.179 240.316 511.69 240.137 512.068 239.819C512.445 239.501 512.657 239.07 512.658 238.62V2.82725C512.657 2.3775 512.445 1.94632 512.068 1.62829C511.69 1.31027 511.179 1.13139 510.645 1.1309H256.351Z" fill="#3F3D56"/>
<path d="M366.053 89.9067H302.983C302.094 89.9058 301.241 89.6077 300.612 89.0776C299.983 88.5476 299.629 87.829 299.628 87.0794V33.9271C299.629 33.1775 299.983 32.4589 300.612 31.9288C301.241 31.3988 302.094 31.1007 302.983 31.0998H366.053C366.943 31.1007 367.795 31.3988 368.424 31.9288C369.053 32.4589 369.407 33.1775 369.408 33.9271V87.0794C369.407 87.829 369.053 88.5476 368.424 89.0776C367.795 89.6077 366.943 89.9058 366.053 89.9067V89.9067ZM302.983 32.2307C302.449 32.2312 301.938 32.4101 301.56 32.7281C301.183 33.0461 300.971 33.4773 300.97 33.9271V87.0794C300.971 87.5292 301.183 87.9604 301.56 88.2784C301.938 88.5964 302.449 88.7753 302.983 88.7758H366.053C366.587 88.7753 367.099 88.5964 367.476 88.2784C367.853 87.9604 368.066 87.5292 368.066 87.0794V33.9271C368.066 33.4773 367.853 33.0461 367.476 32.7281C367.099 32.4101 366.587 32.2312 366.053 32.2307H302.983Z" fill="#F2F2F2"/>
<path d="M347.937 96.4094H284.867C284.067 96.4086 283.299 96.1403 282.733 95.6632C282.167 95.1862 281.849 94.5394 281.848 93.8648V40.7125C281.849 40.0378 282.167 39.3911 282.733 38.9141C283.299 38.437 284.067 38.1687 284.867 38.1679H347.937C348.738 38.1687 349.505 38.437 350.071 38.914C350.638 39.3911 350.956 40.0378 350.957 40.7125V93.8648C350.956 94.5394 350.638 95.1862 350.071 95.6632C349.505 96.1403 348.738 96.4086 347.937 96.4094V96.4094Z" fill="#57A5D5"/>
<path d="M481.281 120.665H284.019C283.219 120.665 282.451 120.397 281.884 119.919C281.318 119.442 281 118.795 281 118.12C281 117.445 281.318 116.798 281.884 116.321C282.451 115.844 283.219 115.576 284.019 115.576H481.281C482.082 115.576 482.85 115.844 483.416 116.321C483.983 116.798 484.301 117.445 484.301 118.12C484.301 118.795 483.983 119.442 483.416 119.919C482.85 120.397 482.082 120.665 481.281 120.665V120.665Z" fill="#CCCCCC"/>
<path d="M434.491 139.949H284.867C284.066 139.949 283.299 139.681 282.732 139.204C282.166 138.727 281.848 138.079 281.848 137.405C281.848 136.73 282.166 136.082 282.732 135.605C283.299 135.128 284.066 134.86 284.867 134.86H434.491C435.292 134.86 436.06 135.128 436.626 135.605C437.192 136.082 437.511 136.73 437.511 137.405C437.511 138.079 437.192 138.727 436.626 139.204C436.06 139.681 435.292 139.949 434.491 139.949V139.949Z" fill="#CCCCCC"/>
<path d="M481.458 57.9587H394.234C393.433 57.9587 392.665 57.6906 392.099 57.2134C391.533 56.7362 391.214 56.089 391.214 55.4142C391.214 54.7393 391.533 54.0921 392.099 53.6149C392.665 53.1377 393.433 52.8696 394.234 52.8696H481.458C482.259 52.8696 483.027 53.1377 483.593 53.6149C484.16 54.0921 484.478 54.7393 484.478 55.4142C484.478 56.089 484.16 56.7362 483.593 57.2134C483.027 57.6906 482.259 57.9587 481.458 57.9587Z" fill="#CCCCCC"/>
<path d="M459.69 75.4877H394.234C393.433 75.4877 392.665 75.2196 392.099 74.7424C391.533 74.2652 391.214 73.618 391.214 72.9431C391.214 72.2683 391.533 71.6211 392.099 71.1439C392.665 70.6667 393.433 70.3986 394.234 70.3986H459.69C460.491 70.3986 461.259 70.6667 461.825 71.1439C462.391 71.6211 462.709 72.2683 462.709 72.9431C462.709 73.618 462.391 74.2652 461.825 74.7424C461.259 75.2196 460.491 75.4877 459.69 75.4877V75.4877Z" fill="#CCCCCC"/>
<path d="M482.129 157.478H284.867C284.066 157.478 283.299 157.21 282.732 156.733C282.166 156.256 281.848 155.608 281.848 154.934C281.848 154.259 282.166 153.611 282.732 153.134C283.299 152.657 284.066 152.389 284.867 152.389H482.129C482.93 152.389 483.698 152.657 484.264 153.134C484.831 153.611 485.149 154.259 485.149 154.934C485.149 155.608 484.831 156.256 484.264 156.733C483.698 157.21 482.93 157.478 482.129 157.478V157.478Z" fill="#CCCCCC"/>
<path d="M434.491 175.007H284.867C284.066 175.007 283.299 174.739 282.732 174.262C282.166 173.785 281.848 173.137 281.848 172.463C281.848 171.788 282.166 171.14 282.732 170.663C283.299 170.186 284.066 169.918 284.867 169.918H434.491C435.292 169.918 436.06 170.186 436.626 170.663C437.192 171.14 437.511 171.788 437.511 172.463C437.511 173.137 437.192 173.785 436.626 174.262C436.06 174.739 435.292 175.007 434.491 175.007V175.007Z" fill="#CCCCCC"/>
<path d="M482.129 192.536H284.867C284.066 192.536 283.299 192.268 282.732 191.791C282.166 191.314 281.848 190.666 281.848 189.991C281.848 189.317 282.166 188.669 282.732 188.192C283.299 187.715 284.066 187.447 284.867 187.447H482.129C482.93 187.447 483.698 187.715 484.264 188.192C484.831 188.669 485.149 189.317 485.149 189.991C485.149 190.666 484.831 191.314 484.264 191.791C483.698 192.268 482.93 192.536 482.129 192.536V192.536Z" fill="#CCCCCC"/>
<path d="M482.129 210.065H284.867C284.066 210.065 283.299 209.797 282.732 209.32C282.166 208.843 281.848 208.195 281.848 207.52C281.848 206.846 282.166 206.198 282.732 205.721C283.299 205.244 284.066 204.976 284.867 204.976H482.129C482.93 204.976 483.698 205.244 484.264 205.721C484.831 206.198 485.149 206.846 485.149 207.52C485.149 208.195 484.831 208.843 484.264 209.32C483.698 209.797 482.93 210.065 482.129 210.065V210.065Z" fill="#CCCCCC"/>
<path d="M323.064 219.571H178.808C177.919 219.57 177.066 219.272 176.437 218.742C175.808 218.212 175.454 217.493 175.453 216.744V141.539C175.454 140.789 175.808 140.07 176.437 139.54C177.066 139.01 177.919 138.712 178.808 138.711H323.064C323.954 138.712 324.807 139.01 325.435 139.54C326.064 140.07 326.418 140.789 326.419 141.539V216.744C326.418 217.493 326.064 218.212 325.435 218.742C324.807 219.272 323.954 219.57 323.064 219.571Z" fill="white"/>
<path d="M323.064 219.571H178.808C177.919 219.57 177.066 219.272 176.437 218.742C175.808 218.212 175.454 217.493 175.453 216.744V141.539C175.454 140.789 175.808 140.07 176.437 139.54C177.066 139.01 177.919 138.712 178.808 138.711H323.064C323.954 138.712 324.807 139.01 325.435 139.54C326.064 140.07 326.418 140.789 326.419 141.539V216.744C326.418 217.493 326.064 218.212 325.435 218.742C324.807 219.272 323.954 219.57 323.064 219.571ZM178.808 139.842C178.274 139.843 177.763 140.022 177.385 140.34C177.008 140.658 176.796 141.089 176.795 141.539V216.744C176.796 217.193 177.008 217.624 177.385 217.942C177.763 218.261 178.274 218.439 178.808 218.44H323.064C323.598 218.439 324.11 218.261 324.487 217.942C324.864 217.624 325.077 217.193 325.077 216.744V141.539C325.077 141.089 324.864 140.658 324.487 140.34C324.11 140.022 323.598 139.843 323.064 139.842H178.808Z" fill="#3F3D56"/>
<path d="M294.549 172.921H207.324C206.523 172.921 205.755 172.653 205.189 172.176C204.623 171.699 204.305 171.051 204.305 170.377C204.305 169.702 204.623 169.054 205.189 168.577C205.755 168.1 206.523 167.832 207.324 167.832H294.549C295.349 167.832 296.117 168.1 296.684 168.577C297.25 169.054 297.568 169.702 297.568 170.377C297.568 171.051 297.25 171.699 296.684 172.176C296.117 172.653 295.349 172.921 294.549 172.921V172.921Z" fill="#CCCCCC"/>
<path d="M294.549 190.45H207.324C206.523 190.45 205.755 190.182 205.189 189.705C204.623 189.228 204.305 188.58 204.305 187.906C204.305 187.231 204.623 186.583 205.189 186.106C205.755 185.629 206.523 185.361 207.324 185.361H294.549C295.349 185.361 296.117 185.629 296.684 186.106C297.25 186.583 297.568 187.231 297.568 187.906C297.568 188.58 297.25 189.228 296.684 189.705C296.117 190.182 295.349 190.45 294.549 190.45Z" fill="#CCCCCC"/>
<path d="M154.545 285.491H162.771L166.684 258.752L154.544 258.753L154.545 285.491Z" fill="#A0616A"/>
<path d="M152.447 283.228L168.647 283.227H168.648C171.386 283.227 174.011 284.144 175.947 285.776C177.883 287.407 178.971 289.62 178.971 291.927V292.21L152.448 292.211L152.447 283.228Z" fill="#2F2E41"/>
<path d="M90.4963 282.49L98.6297 283.526L107.242 257.581L96.5799 256.052L90.4963 282.49Z" fill="#A0616A"/>
<path d="M88.823 279.988L104.841 282.028L104.841 282.028C107.549 282.374 109.982 283.611 111.607 285.468C113.232 287.325 113.915 289.65 113.506 291.931L113.456 292.211L87.23 288.87L88.823 279.988Z" fill="#2F2E41"/>
<path d="M115.859 152.979L124.992 154.996L124.384 167.475L124.309 190.195C125.209 190.72 125.899 191.462 126.287 192.324C126.675 193.186 126.744 194.127 126.484 195.023C126.224 195.919 125.647 196.727 124.83 197.34C124.013 197.953 122.995 198.343 121.909 198.458C120.824 198.573 119.722 198.408 118.751 197.984C117.779 197.56 116.984 196.897 116.469 196.084C115.954 195.27 115.744 194.344 115.867 193.428C115.99 192.512 116.441 191.649 117.159 190.953L114.352 168.149L115.859 152.979Z" fill="#A0616A"/>
<path d="M114.269 138.685C114.319 137.479 114.781 136.311 115.598 135.32C116.415 134.329 117.554 133.557 118.878 133.097C120.117 132.63 121.491 132.478 122.832 132.66C124.172 132.841 125.42 133.349 126.423 134.12C127.144 134.663 127.715 135.332 128.098 136.08C128.481 136.828 128.665 137.637 128.638 138.452C128.662 145.762 126.704 156.418 126.684 156.524L126.653 156.694L113.303 160.483L114.269 138.685Z" fill="#F2A516"/>
<path d="M138.139 159.437L158.558 154.983L167.997 181.772L168.332 281.574L152.718 281.492L146.191 200.715L104.591 275.355L87.8172 273.658L124.384 193.647C124.384 193.647 122.372 179.511 128.746 172.442L127.404 165.092L138.139 159.437Z" fill="#2F2E41"/>
<path d="M124.371 166.102C124.086 165.81 123.878 165.469 123.763 165.103C123.648 164.737 123.627 164.355 123.703 163.981L114.39 140.433C113.955 139.333 113.909 138.149 114.257 137.027C114.605 135.904 115.332 134.891 116.35 134.11L120.394 131.013L123.134 121.776L138.882 125.02L137.584 129.394L144.712 128.303L159.724 156.48L128.345 167.05L126.799 167.071C126.335 167.072 125.876 166.985 125.455 166.817C125.035 166.65 124.665 166.406 124.371 166.102V166.102Z" fill="#F2A516"/>
<path d="M146.229 146.22L155.227 143.81L162.629 154.631L176.977 173.867C178.07 173.905 179.124 174.222 179.999 174.775C180.873 175.329 181.528 176.093 181.877 176.967C182.225 177.841 182.25 178.784 181.949 179.67C181.647 180.557 181.034 181.345 180.189 181.931C179.345 182.518 178.309 182.874 177.219 182.953C176.129 183.032 175.036 182.831 174.085 182.375C173.134 181.92 172.369 181.232 171.892 180.402C171.415 179.572 171.248 178.64 171.414 177.728L154.578 159.72L146.229 146.22Z" fill="#A0616A"/>
<path d="M135.82 134.856C135.097 133.814 134.746 132.619 134.809 131.413C134.871 130.207 135.344 129.043 136.171 128.057C136.922 127.105 137.987 126.357 139.235 125.907C140.483 125.457 141.86 125.323 143.196 125.523C144.15 125.657 145.057 125.965 145.855 126.424C146.653 126.884 147.322 127.485 147.816 128.186C152.473 134.353 157.576 144.241 157.627 144.34L157.708 144.498L148.829 153.713L135.82 134.856Z" fill="#F2A516"/>
<path d="M134.785 120.058C141.696 120.058 147.298 115.336 147.298 109.512C147.298 103.689 141.696 98.9675 134.785 98.9675C127.875 98.9675 122.273 103.689 122.273 109.512C122.273 115.336 127.875 120.058 134.785 120.058Z" fill="#A0616A"/>
<path d="M112.673 105.064C119.329 105.064 124.726 100.517 124.726 94.9069C124.726 89.297 119.329 84.7494 112.673 84.7494C106.016 84.7494 100.62 89.297 100.62 94.9069C100.62 100.517 106.016 105.064 112.673 105.064Z" fill="#2F2E41"/>
<path d="M102.276 103.318C103.836 104.268 105.644 104.89 107.547 105.131C109.451 105.372 111.395 105.225 113.217 104.703C115.04 104.18 116.687 103.298 118.022 102.129C119.357 100.96 120.34 99.5391 120.889 97.9844C120.681 99.3777 120.133 100.719 119.279 101.925C118.425 103.131 117.283 104.174 115.926 104.989C114.569 105.804 113.027 106.373 111.396 106.66C109.765 106.948 108.081 106.947 106.45 106.658C104.82 106.369 103.278 105.798 101.922 104.982C100.566 104.166 99.4263 103.121 98.5738 101.915C97.7212 100.708 97.1747 99.3659 96.9688 97.9725C96.7629 96.579 96.902 95.1648 97.3774 93.8189C97.1074 95.627 97.4198 97.4631 98.2818 99.1344C99.1437 100.806 100.524 102.251 102.276 103.318V103.318Z" fill="#2F2E41"/>
<path d="M149.842 103.329C147.738 100.155 146.933 98.8286 144.22 96.8981C141.821 95.1908 138.87 94.6895 136.49 96.3071C133.674 95.2819 130.541 95.0494 127.556 95.6442C124.571 96.2391 121.893 97.6295 119.921 99.6091C117.948 101.589 116.785 104.052 116.606 106.632C116.427 109.213 117.24 111.773 118.925 113.933C120.61 116.094 123.076 117.738 125.958 118.623C128.841 119.507 131.985 119.585 134.923 118.843C137.862 118.102 140.438 116.582 142.27 114.509C144.102 112.435 145.091 109.919 145.091 107.334C145.088 106.88 145.056 106.426 144.994 105.976C147.062 105.731 147.773 103.574 149.842 103.329Z" fill="#2F2E41"/>
<path d="M256.307 292.337H0.67096C0.49301 292.337 0.322348 292.278 0.196519 292.172C0.0706897 292.066 0 291.922 0 291.772C0 291.622 0.0706897 291.479 0.196519 291.373C0.322348 291.267 0.49301 291.207 0.67096 291.207H256.307C256.485 291.207 256.655 291.267 256.781 291.373C256.907 291.479 256.978 291.622 256.978 291.772C256.978 291.922 256.907 292.066 256.781 292.172C256.655 292.278 256.485 292.337 256.307 292.337Z" fill="#CCCCCC"/>
</g>
<defs>
<clipPath id="clip0">
<rect width="514" height="292.338" fill="white"/>
</clipPath>
</defs>
</svg>
