<svg width="100" height="27" viewBox="0 0 100 27" fill="none" xmlns="http://www.w3.org/2000/svg">
<g clip-path="url(#clip0)">
<path d="M27.3651 16.6759C25.7399 16.6759 24.217 16.0679 22.8334 15.0782L23.1703 13.681L23.185 13.6292C23.485 12.1416 24.4368 9.64455 27.3651 9.64455C29.5612 9.64455 31.3475 11.223 31.3475 13.1634C31.3401 15.0975 29.5539 16.6759 27.3651 16.6759ZM27.3651 6.08046C23.6241 6.08046 20.7252 8.22803 19.5467 11.7598C17.7457 9.37291 16.384 6.50742 15.5862 4.0946H11.5598V13.351C11.5598 15.1752 9.87601 16.6628 7.81156 16.6628C5.74711 16.6628 4.06352 15.1752 4.06352 13.351V4.0946H0.0367586V13.351C0.0221101 17.1417 3.5141 20.2529 7.80394 20.2529C12.094 20.2529 15.586 17.1417 15.586 13.351V11.7987C16.3692 13.2411 17.3282 14.6964 18.4922 15.9903L16.025 26.2362H20.1467L21.9328 18.804C23.4994 19.6902 25.3004 20.2466 27.3649 20.2466C31.7791 20.2466 35.3737 17.0511 35.3737 13.1505C35.3737 9.25642 31.7791 6.08046 27.3649 6.08046H27.3651Z" fill="white"/>
<path d="M47.6646 6.48152L50.2635 15.7379L53.126 6.48152H56.5373L52.1377 19.8584H48.7262L46.025 10.5437L43.3309 19.8519H39.9195L35.5195 6.47513H38.9311L41.7934 15.7315L44.3922 6.47513H47.6645V6.48169L47.6646 6.48152ZM64.6998 6.08045C60.2709 6.08045 56.6838 9.25641 56.6838 13.1634C56.6838 17.077 60.2781 20.2465 64.6998 20.2465C69.1289 20.2465 72.7232 17.077 72.7232 13.1634C72.7232 9.25002 69.1289 6.08045 64.6998 6.08045ZM64.6998 17.3357C62.0938 17.3357 59.9854 15.4727 59.9854 13.17C59.9854 10.8671 62.101 9.00427 64.6998 9.00427C67.3061 9.00427 69.4143 10.8671 69.4143 13.17C69.4143 15.4663 67.3061 17.3357 64.6998 17.3357ZM82.467 9.47644C80.1758 9.47644 78.3236 11.1194 78.3236 13.1375V19.8519H74.89V6.48152H78.3236V8.53848C78.3236 8.53848 79.7877 6.47496 82.7965 6.47496H83.8506V9.47644H82.467ZM93.9898 12.646C96.4273 11.4299 98.082 9.12059 98.082 6.47496H94.6484C94.6484 8.70657 92.5988 10.5178 90.0732 10.5178H89.6119V0.0258789H86.1787V19.8517H89.6119V13.5515H90.0221C90.3588 13.5515 90.798 13.7457 90.9957 13.9849L95.8711 19.8519H99.9854L93.9898 12.646Z" fill="white"/>
</g>
<defs>
<clipPath id="clip0">
<rect width="100" height="26.4045" fill="white"/>
</clipPath>
</defs>
</svg>
