<svg width="100" height="27" viewBox="0 0 100 27" fill="none" xmlns="http://www.w3.org/2000/svg">
<g clip-path="url(#clip0)">
<path d="M27.365 16.676C25.7398 16.676 24.2169 16.068 22.8333 15.0783L23.1703 13.6811L23.1849 13.6293C23.4849 12.1417 24.4367 9.64467 27.365 9.64467C29.5611 9.64467 31.3474 11.2231 31.3474 13.1635C31.34 15.0976 29.5538 16.676 27.365 16.676ZM27.365 6.08059C23.624 6.08059 20.7251 8.22815 19.5466 11.76C17.7456 9.37304 16.3839 6.50754 15.5861 4.09473H11.5597V13.3511C11.5597 15.1753 9.87592 16.6629 7.81147 16.6629C5.74702 16.6629 4.06342 15.1753 4.06342 13.3511V4.09473H0.036667V13.3511C0.0220186 17.1418 3.51401 20.2531 7.80385 20.2531C12.0939 20.2531 15.5859 17.1418 15.5859 13.3511V11.7988C16.3691 13.2412 17.3281 14.6966 18.4921 15.9904L16.0249 26.2364H20.1466L21.9328 18.8041C23.4994 19.6903 25.3003 20.2467 27.3648 20.2467C31.779 20.2467 35.3736 17.0512 35.3736 13.1506C35.3736 9.25655 31.779 6.08059 27.3648 6.08059H27.365Z" fill="#775A7C"/>
<path d="M47.6646 6.48152L50.2635 15.7379L53.126 6.48152H56.5373L52.1377 19.8584H48.7262L46.025 10.5437L43.3309 19.8519H39.9195L35.5195 6.47513H38.9311L41.7934 15.7315L44.3922 6.47513H47.6645V6.48169L47.6646 6.48152ZM64.6998 6.08045C60.2709 6.08045 56.6838 9.25641 56.6838 13.1634C56.6838 17.077 60.2781 20.2465 64.6998 20.2465C69.1289 20.2465 72.7232 17.077 72.7232 13.1634C72.7232 9.25002 69.1289 6.08045 64.6998 6.08045ZM64.6998 17.3357C62.0938 17.3357 59.9854 15.4727 59.9854 13.17C59.9854 10.8671 62.101 9.00427 64.6998 9.00427C67.3061 9.00427 69.4143 10.8671 69.4143 13.17C69.4143 15.4663 67.3061 17.3357 64.6998 17.3357ZM82.467 9.47644C80.1758 9.47644 78.3236 11.1194 78.3236 13.1375V19.8519H74.89V6.48152H78.3236V8.53848C78.3236 8.53848 79.7877 6.47496 82.7965 6.47496H83.8506V9.47644H82.467ZM93.9898 12.646C96.4273 11.4299 98.082 9.12059 98.082 6.47496H94.6484C94.6484 8.70657 92.5988 10.5178 90.0732 10.5178H89.6119V0.0258789H86.1787V19.8517H89.6119V13.5515H90.0221C90.3588 13.5515 90.798 13.7457 90.9957 13.9849L95.8711 19.8519H99.9854L93.9898 12.646Z" fill="#775A7C"/>
</g>
<defs>
<clipPath id="clip0">
<rect width="100" height="26.4045" fill="white"/>
</clipPath>
</defs>
</svg>
