<svg width="70" height="70" viewBox="0 0 70 70" fill="none" xmlns="http://www.w3.org/2000/svg">
    <path
        d="M34.3292 32.7834H29.0383V23.9226H35.315C38.7275 23.9226 40.6642 25.4451 40.6642 28.1984C40.6642 31.1384 38.4096 32.7834 34.3233 32.7834H34.3292ZM35.2742 36.3009H29.0413V46.0659H35.5483C39.8038 46.0659 42.0583 44.3597 42.0583 41.1514C42.0583 37.943 39.7396 36.3009 35.2742 36.3009V36.3009ZM70 33.2209V36.7734C66.71 37.0884 64.7004 39.5268 63.5075 43.3884C62.3204 47.2355 62.1571 51.9547 62.2825 55.5976C62.4138 59.3893 59.4592 62.8893 55.4663 62.8893H14.5396C10.5438 62.8893 7.58917 59.3893 7.72333 55.5976C7.84875 51.9547 7.68542 47.2355 6.49833 43.3884C5.3025 39.5268 3.29 37.0884 0 36.7734V33.2209C3.29 32.9059 5.30542 30.4676 6.49542 26.6059C7.68542 22.7589 7.84875 18.0397 7.72042 14.3968C7.58917 10.6051 10.5438 7.1051 14.5396 7.1051H55.4663C59.4621 7.1051 62.4138 10.6051 62.2825 14.3968C62.1571 18.0397 62.3204 22.7589 63.5075 26.6059C64.7004 30.4676 66.71 32.9059 70 33.2209ZM46.8796 41.4372C46.8796 37.488 44.1 34.6326 39.9729 34.1805V34.0143C43.0063 33.5214 45.3863 30.7039 45.3863 27.5597C45.3863 23.0768 41.8483 20.1572 36.4554 20.1572H24.3221V49.8255H36.5167C42.9858 49.8255 46.8796 46.658 46.8796 41.4372V41.4372Z"
        fill="black" />
</svg>