<svg width="50" height="70" viewBox="0 0 50 70" fill="none" xmlns="http://www.w3.org/2000/svg">
<g clip-path="url(#clip0)">
<path d="M24.7897 69.8231L4.58822 64.215L0.0863037 13.7219H49.5536L45.0471 64.2072L24.7897 69.8231V69.8231Z" fill="#264DE4"/>
<path d="M41.1889 60.9924L45.0399 17.8503H24.8199V65.5304L41.1889 60.9924V60.9924Z" fill="#2965F1"/>
<path d="M10.4067 36.5776L10.9617 42.7704H24.82V36.5776H10.4067Z" fill="#EBEBEB"/>
<path d="M9.29138 24.0433L9.85429 30.2361H24.8199V24.0433H9.29138V24.0433Z" fill="#EBEBEB"/>
<path d="M24.82 52.661L24.7928 52.6682L17.896 50.8059L17.455 45.8669H11.2384L12.1059 55.5905L24.7915 59.1119L24.82 59.1041V52.661Z" fill="#EBEBEB"/>
<path d="M11.7282 0H19.2285V3.13662H14.8648V6.27324H19.2289V9.40967H11.7282V0Z" fill="black"/>
<path d="M20.7287 0H28.2292V2.72748H23.8653V3.27294H28.2292V9.54618H20.7289V6.682H25.0927V6.13654H20.7285V0H20.7287Z" fill="black"/>
<path d="M29.7295 0H37.23V2.72748H32.8661V3.27294H37.23V9.54618H29.7295V6.682H34.0933V6.13654H29.7297V0H29.7295Z" fill="black"/>
<path d="M39.1936 36.5776L40.3115 24.0433H24.7987V30.2361H33.5248L32.9613 36.5776H24.7987V42.7704H32.4244L31.7054 50.802L24.7985 52.6662V59.1089L37.4941 55.5905L37.5871 54.5441L39.0426 38.2405L39.1936 36.5776V36.5776Z" fill="white"/>
</g>
<defs>
<clipPath id="clip0">
<rect width="49.6399" height="70" fill="white"/>
</clipPath>
</defs>
</svg>
