<svg width="70" height="70" viewBox="0 0 70 70" fill="none" xmlns="http://www.w3.org/2000/svg">
<path d="M14.8167 0H17.9725V3.11792H20.86V0H24.0159V9.43833H20.86V6.27958H17.9725V9.43833H14.8196V0H14.8167Z" fill="black"/>
<path d="M28.1633 3.12958H25.3866V0H34.0987V3.12958H31.3191V9.43833H28.1633V3.12958Z" fill="black"/>
<path d="M35.4812 0H38.7712L40.7954 3.31625L42.8166 0H46.1066V9.43833H42.9654V4.76L40.7954 8.11708H40.74L38.567 4.76292V9.43833H35.4812V0V0Z" fill="black"/>
<path d="M47.6758 0H50.8346V6.32042H55.2679V9.44125H47.6758V0V0Z" fill="black"/>
<path fill-rule="evenodd" clip-rule="evenodd" d="M14.7175 64.3768L8.75 13.7581H61.25L55.2796 64.371L34.9708 70.0001L14.7175 64.3768ZM26.7837 36.6685L26.2179 30.3101H49.9742L50.5283 24.1035H19.4367L21.1108 42.8781H42.6271L41.9067 50.9281L34.9825 52.8006H34.9767L28.0642 50.9339L27.6208 45.9843H21.385L22.2542 55.7318L34.9708 59.261L47.7079 55.7318L49.2596 38.3368L49.4113 36.6714H26.7837V36.6685Z" fill="black"/>
</svg>
