<svg width="70" height="70" viewBox="0 0 70 70" fill="none" xmlns="http://www.w3.org/2000/svg">
<path d="M0 4.375V65.625H70V4.375H0ZM38.0938 52.1445C38.0938 58.1055 34.0937 60.8262 28.2656 60.8262C23 60.8262 19.9531 58.4473 18.3906 55.5625L23.75 52.7324C24.7812 54.332 25.7188 55.6855 27.9844 55.6855C30.1406 55.6855 31.5156 54.9473 31.5156 52.0625V32.498H38.0938V52.1445V52.1445ZM53.6562 60.8262C47.5469 60.8262 43.5938 58.2832 41.6719 54.9473L47.0312 52.2402C48.4375 54.25 50.2812 55.7402 53.5156 55.7402C56.2344 55.7402 57.9844 54.5508 57.9844 52.8965C57.9844 50.9277 56.2031 50.2305 53.1875 49.0684L51.5469 48.4531C46.7969 46.6895 43.6562 44.4609 43.6562 39.7715C43.6562 35.4512 47.4219 32.1699 53.2812 32.1699C57.4687 32.1699 60.4687 33.4414 62.625 36.7773L57.5 39.6484C56.375 37.8848 55.1562 37.1875 53.2656 37.1875C51.3437 37.1875 50.125 38.2539 50.125 39.6484C50.125 41.3711 51.3438 42.0684 54.1719 43.1484L55.8125 43.7637C61.4063 45.8555 64.5469 48.002 64.5469 52.8145C64.5469 57.9824 59.8906 60.8262 53.6562 60.8262V60.8262Z" fill="black"/>
</svg>
