<svg width="68" height="70" viewBox="0 0 68 70" fill="none" xmlns="http://www.w3.org/2000/svg">
<path d="M67.9632 15.8375C67.985 15.9294 67.9982 16.0322 67.9982 16.1219V31.15C67.9987 31.3418 67.9483 31.5303 67.8523 31.6963C67.7562 31.8623 67.6178 31.9999 67.4513 32.095L54.8382 39.3641V53.7535C54.8387 53.9453 54.7883 54.1338 54.6923 54.2998C54.5962 54.4658 54.4578 54.6033 54.2913 54.6985L27.9625 69.8513C27.9011 69.8854 27.8357 69.9118 27.7678 69.93L27.7 69.965C27.5169 70.011 27.3253 70.011 27.1422 69.965C27.1146 69.9568 27.0881 69.945 27.0635 69.93C27.0003 69.9105 26.9394 69.8841 26.8819 69.8513L0.564099 54.6985C0.396412 54.6037 0.256598 54.4665 0.15869 54.3006C0.0607813 54.1348 0.00822195 53.9461 0.00628662 53.7535V8.67128C0.00628662 8.57941 0.0281616 8.47659 0.0522241 8.38691C0.0631616 8.35191 0.0740991 8.33003 0.0872241 8.29503L0.155037 8.12441C0.165974 8.08941 0.200974 8.06753 0.222849 8.03253L0.325662 7.89472C0.362486 7.87198 0.396931 7.8456 0.428474 7.81597C0.474412 7.78097 0.507224 7.74816 0.553162 7.72409L13.7132 0.146594C13.8796 0.0510233 14.0681 0.000732422 14.26 0.000732422C14.4519 0.000732422 14.6405 0.0510233 14.8069 0.146594L27.9778 7.72409C28.0238 7.74597 28.0566 7.78097 28.0916 7.81597L28.2053 7.89472C28.239 7.93858 28.2697 7.98462 28.2972 8.03253C28.3191 8.05441 28.3541 8.08941 28.376 8.12441L28.4438 8.29503C28.4547 8.33003 28.4788 8.35191 28.4788 8.38691C28.5119 8.47795 28.5275 8.57444 28.5247 8.67128V36.8244L39.4841 30.5135V16.1241C39.4882 15.9948 39.5156 15.8674 39.565 15.7478L39.6329 15.5772C39.6547 15.5313 39.6897 15.5094 39.7116 15.4744C39.7466 15.4285 39.7685 15.3825 39.8035 15.3497C39.8385 15.3169 39.8822 15.2928 39.9172 15.271C39.9501 15.2345 39.9885 15.2035 40.031 15.1791L53.2019 7.60159C53.3665 7.50063 53.5557 7.44718 53.7488 7.44718C53.9418 7.44718 54.1311 7.50063 54.2957 7.60159L67.4557 15.1791C67.5016 15.201 67.5344 15.236 67.5804 15.271C67.6154 15.2928 67.6482 15.3169 67.6832 15.3497C67.7182 15.3825 67.751 15.4285 67.786 15.4744C67.8079 15.5094 67.8429 15.5313 67.8538 15.5772C67.8888 15.6341 67.8997 15.691 67.9216 15.7478C67.9435 15.7697 67.9566 15.8047 67.9675 15.8397L67.9632 15.8375ZM65.7975 30.5113V18.025L61.195 20.6675L54.8382 24.336V36.8222L65.7975 30.5113ZM52.6507 53.1147V40.6153L46.3835 44.181L28.5182 54.39V67.0032L52.6507 53.1147ZM2.18941 10.5722V53.1147L26.3197 67.0032V54.39L13.7066 47.2457C13.6607 47.2238 13.6278 47.1888 13.5928 47.1538C13.5578 47.1319 13.5141 47.1078 13.49 47.075H13.4791C13.4441 47.04 13.4222 46.9963 13.3872 46.9613C13.3653 46.9263 13.3303 46.8935 13.3085 46.8475C13.283 46.8046 13.2638 46.7581 13.2516 46.7097C13.2297 46.6638 13.2057 46.631 13.1947 46.585C13.1838 46.5391 13.1728 46.4822 13.1728 46.4253C13.1619 46.3794 13.151 46.3466 13.151 46.3007V16.8832L6.7941 13.2147L2.18941 10.5722ZM14.2557 2.35816L3.29629 8.66909L14.2557 14.98L25.215 8.66909L14.2557 2.35816ZM19.9628 41.7572L26.3197 38.0888V10.5744L21.7172 13.2169L15.3494 16.8853V44.3997L19.9628 41.7572ZM53.7444 9.80878L42.7719 16.1197L53.7444 22.4307L64.7038 16.1197L53.7444 9.80878ZM52.6507 24.336L41.6782 18.025V30.5113L48.035 34.1797L52.6485 36.8222L52.6507 24.336ZM27.4157 52.4891L51.535 38.7253L40.5866 32.4144L16.4782 46.2919L27.4157 52.4891Z" fill="black"/>
</svg>
