<svg width="70" height="70" viewBox="0 0 70 70" fill="none" xmlns="http://www.w3.org/2000/svg">
<path d="M16.625 30.1678C17.2995 30.083 17.9841 30.1327 18.6393 30.3141C19.2945 30.4954 19.9073 30.8048 20.4422 31.2244C20.7873 31.756 21.0074 32.359 21.0858 32.988C21.1643 33.617 21.099 34.2555 20.895 34.8556C20.716 36.333 20.0016 37.6935 18.8869 38.6794C17.5426 39.5453 15.9536 39.9514 14.3588 39.8366H11.2963L13.1775 30.1875L16.625 30.1678ZM4.375 49.606H9.40625L10.5984 43.481H14.9012C16.4864 43.5213 18.0684 43.317 19.5913 42.875C20.842 42.4621 21.9852 41.7762 22.9381 40.8669C24.5862 39.3849 25.697 37.3988 26.0969 35.2188C26.4125 34.1337 26.4681 32.9896 26.2591 31.8791C26.0501 30.7686 25.5823 29.7229 24.8938 28.8269C24.0636 28.0042 23.0639 27.3727 21.9644 26.9763C20.865 26.58 19.6922 26.4284 18.5281 26.5322H8.87469L4.375 49.606Z" fill="#8993BE"/>
<path d="M29.7872 20.394H34.7813L33.5716 26.519H38.0144C40.0556 26.3053 42.1062 26.824 43.8003 27.9825C44.3609 28.6197 44.744 29.393 44.9114 30.225C45.0788 31.057 45.0246 31.9184 44.7541 32.7228L42.6672 43.4612H37.6141L39.6003 33.2522C39.7385 32.8627 39.7879 32.4472 39.7447 32.0361C39.7016 31.6251 39.567 31.2289 39.351 30.8765C38.6269 30.357 37.7319 30.1333 36.8485 30.2509H32.8607L30.2903 43.4722H25.2853L29.7872 20.394Z" fill="#8993BE"/>
<path d="M55.8666 30.1677C56.5411 30.0829 57.2257 30.1326 57.8809 30.314C58.5361 30.4953 59.1489 30.8047 59.6838 31.2243C60.0289 31.7559 60.249 32.3589 60.3274 32.9879C60.4058 33.6169 60.3406 34.2554 60.1366 34.8556C59.9576 36.3329 59.2431 37.6934 58.1285 38.6793C56.7818 39.5471 55.1894 39.9532 53.5916 39.8365H50.5313L52.4081 30.1765L55.8666 30.1677ZM43.6166 49.6059H48.6478L49.84 43.4809H54.145C55.7331 43.5221 57.3181 43.3178 58.8438 42.8749C60.0945 42.462 61.2377 41.7761 62.1906 40.8668C63.8347 39.3832 64.9415 37.3973 65.3385 35.2187C65.6541 34.1336 65.7097 32.9895 65.5007 31.879C65.2916 30.7685 64.8239 29.7228 64.1353 28.8268C63.3049 28.0056 62.3052 27.3754 61.2062 26.9803C60.1072 26.5851 58.9352 26.4344 57.7719 26.5387H48.1031L43.6166 49.6059Z" fill="#8993BE"/>
</svg>
