<svg width="117" height="70" viewBox="0 0 117 70" fill="none" xmlns="http://www.w3.org/2000/svg">
<g clip-path="url(#clip0)">
<path d="M58.1818 0C42.6668 0 32.9695 7.75773 29.0909 23.2727C34.9091 15.515 41.6968 12.6059 49.4545 14.5455C53.8805 15.6518 57.0441 18.8632 60.5459 22.4173C66.2505 28.2077 72.8523 34.9091 87.2727 34.9091C102.788 34.9091 112.485 27.1514 116.364 11.6364C110.545 19.3941 103.758 22.3032 96 20.3636C91.5741 19.2573 88.4105 16.0459 84.9086 12.4918C79.2041 6.70136 72.6023 0 58.1818 0ZM29.0909 34.9091C13.5759 34.9091 3.87864 42.6668 0 58.1818C5.81818 50.4241 12.6059 47.515 20.3636 49.4545C24.7895 50.5609 27.9532 53.7723 31.455 57.3264C37.1595 63.1168 43.7614 69.8182 58.1818 69.8182C73.6968 69.8182 83.3941 62.0605 87.2727 46.5455C81.4545 54.3032 74.6668 57.2123 66.9091 55.2727C62.4832 54.1664 59.3195 50.955 55.8177 47.4009C50.1132 41.6105 43.5114 34.9091 29.0909 34.9091Z" fill="url(#paint0_linear)"/>
</g>
<defs>
<linearGradient id="paint0_linear" x1="-3.23258" y1="22.3418" x2="97.2664" y2="80.2878" gradientUnits="userSpaceOnUse">
<stop stop-color="#2298BD"/>
<stop offset="1" stop-color="#0ED7B5"/>
</linearGradient>
<clipPath id="clip0">
<rect width="116.364" height="70" fill="white"/>
</clipPath>
</defs>
</svg>
