<svg width="70" height="70" viewBox="0 0 70 70" fill="none" xmlns="http://www.w3.org/2000/svg">
<path d="M55.2695 33.4818C55.2695 29.7718 53.9351 27.2036 52.7932 25.2043L52.4432 24.6355C51.0563 22.4043 49.8445 20.4443 49.8445 18.1605C49.8445 15.4043 51.9357 12.8318 54.8845 12.8318C54.972 12.8318 55.0551 12.8405 55.1382 12.8449L55.2738 12.858C49.7446 7.77925 42.5078 4.96514 35.0001 4.97427C30.0243 4.97171 25.126 6.20724 20.7466 8.56951C16.3673 10.9318 12.6446 14.3466 9.91383 18.5061C10.6138 18.528 11.2832 18.5455 11.8476 18.5455C14.9845 18.5455 19.8451 18.1649 19.8451 18.1649C21.4638 18.0686 21.6563 20.4443 20.0376 20.6368C20.0376 20.6368 18.4145 20.8293 16.6032 20.9211L27.5407 53.4449L34.1032 33.7311L29.422 20.9168C27.8076 20.8205 26.2763 20.6324 26.2763 20.6324C24.6576 20.5361 24.8501 18.0599 26.4645 18.1561C26.4645 18.1561 31.4257 18.5368 34.3745 18.5368C37.5157 18.5368 42.3807 18.1561 42.3807 18.1561C43.9995 18.0599 44.1876 20.4399 42.5688 20.6324C42.5688 20.6324 40.9413 20.8205 39.1345 20.9168L49.9845 53.1911L52.977 43.1855L53.2132 42.4286C54.3945 38.6661 55.2651 35.888 55.2651 33.4774L55.2695 33.4818ZM4.97446 34.9999C4.97416 40.6381 6.56118 46.1626 9.5539 50.941C12.5466 55.7195 16.8241 59.5589 21.897 62.0199L7.56883 22.7761C5.85309 26.6226 4.96901 30.7881 4.97446 34.9999V34.9999Z" fill="black"/>
<path d="M26.5168 63.8008L35.5293 37.6251L44.7562 62.9126C44.8174 63.057 44.8874 63.1926 44.9705 63.3239C39.0225 65.4194 32.5651 65.5863 26.5168 63.8008V63.8008ZM61.3418 20.5933C61.473 21.5514 61.5474 22.5751 61.5474 23.682C61.5474 26.727 60.9787 30.1526 59.2637 34.4358L50.0937 60.9483C56.8605 57.0167 61.824 50.5974 63.926 43.0589C66.028 35.5204 65.1023 27.459 61.3462 20.5933H61.3418Z" fill="black"/>
<path fill-rule="evenodd" clip-rule="evenodd" d="M0 35C0 15.7019 15.7019 0 35 0C54.2937 0 70 15.7019 70 35C70 54.2981 54.2937 70 35 70C15.7019 70 0 54.2981 0 35ZM1.60563 35C1.60563 53.4144 16.5856 68.3944 35 68.3944C53.41 68.3944 68.39 53.4144 68.39 35C68.39 16.5812 53.41 1.60563 35 1.60563C16.5812 1.60563 1.60563 16.5812 1.60563 35Z" fill="black"/>
</svg>
